<svg xmlns="http://www.w3.org/2000/svg" xmlns:xlink="http://www.w3.org/1999/xlink" width="300" height="300" viewBox="0 0 349.166 397.554">
  <defs>
    <linearGradient id="linear-gradient" x1="0.5" y1="1" x2="0.5" gradientUnits="objectBoundingBox">
      <stop offset="0" stop-color="gray" stop-opacity="0.251"/>
      <stop offset="0.54" stop-color="gray" stop-opacity="0.122"/>
      <stop offset="1" stop-color="gray" stop-opacity="0.102"/>
    </linearGradient>
    <linearGradient id="linear-gradient-2" x1="0.5" y1="1" x2="0.5" y2="0" xlink:href="#linear-gradient"/>
    <linearGradient id="linear-gradient-3" x1="-0.211" y1="3.614" x2="-0.211" y2="0.343" xlink:href="#linear-gradient"/>
    <linearGradient id="linear-gradient-4" x1="-0.036" y1="4.542" x2="-0.036" y2="1.284" xlink:href="#linear-gradient"/>
    <linearGradient id="linear-gradient-5" x1="-0.017" y1="4.446" x2="-0.017" y2="1.187" xlink:href="#linear-gradient"/>
    <linearGradient id="linear-gradient-6" x1="-1.04" y1="1.715" x2="-1.04" y2="0.715" xlink:href="#linear-gradient"/>
    <linearGradient id="linear-gradient-7" x1="0.551" y1="0.784" x2="0.551" y2="0.225" xlink:href="#linear-gradient"/>
    <linearGradient id="linear-gradient-8" x1="0.5" y1="1" x2="0.5" y2="0" xlink:href="#linear-gradient"/>
  </defs>
  <g id="undraw_upload_87y9">
    <path id="Tracé_9973" data-name="Tracé 9973" d="M245.676,68.389c-11.449-4.551-23.547-8.361-35.9-7.876-18.172.7-35.578,11.378-44.128,27.06-7.244,13.285-8.138,28.858-11.258,43.6-3.844,18.167-11.205,35.43-19.072,52.314-4.226,9.056-8.683,18.332-9.376,28.274-.964,13.8,5.784,27.554,16.364,36.743s24.641,14.023,38.738,15.08c7.506.563,15.348.042,22.016-3.373,7.053-3.614,12.194-10.146,19.275-13.706,6.564-3.313,14.239-3.765,21.607-3.334a98.649,98.649,0,0,1,28.21,5.861c10.3,3.783,19.873,9.258,30.148,13.092s21.755,5.975,32.258,2.774c9.856-3.012,17.661-10.3,24.693-17.694a310.836,310.836,0,0,0,31.478-38.942c6.342-9.288,12.243-19.088,15.049-29.915,5.359-20.7-2.017-44.049-18.385-58.186-13.552-11.71-31.753-16.793-49.565-19.877-16.241-2.813-35.02-2.988-49.971-10.318C273.6,82.963,260.627,74.334,245.676,68.389Z" transform="translate(-97.329 -51.19)" fill="#fff"/>
    <path id="Tracé_9974" data-name="Tracé 9974" d="M783.2,138c-4.413.176-4.635,11.569-4.36,12.066s-1,5.639-1,5.639-2,7.8-1.771,9.245a2.7,2.7,0,0,1-1.078,2.4c-1.959.773-4.415,3.263-5.068,3.946l-.164.176a14.254,14.254,0,0,0-2.231,1.724c-.334.488-1.236.1-1.236.1a24.091,24.091,0,0,0-2.9-.148c-.229.068-.587-.352-.791-.618-.1-.127-.158-.222-.158-.222l-.077-2.3a1.881,1.881,0,0,0-.309-.192c.053-.26.117-.528.2-.8a6.884,6.884,0,0,0,2.809-2.521c.074-.117.142-.238.207-.358a.927.927,0,0,0,.584.164,1.159,1.159,0,0,0,.272-.025,2.2,2.2,0,0,0,.791-.4,4.233,4.233,0,0,0,1.471-1.724,2.8,2.8,0,0,0,.139-.411c-.046.077-.1.154-.145.229a2.376,2.376,0,0,0-.164-2.005,6.584,6.584,0,0,1-.772-1.137c-.26-.745.232-1.514.534-2.243a3.774,3.774,0,0,0,.275-2.114,2.7,2.7,0,0,0-1.143-1.783c-1.214-.788-2.861-.355-4.267-.735a11.554,11.554,0,0,1-1.468-.59,11.121,11.121,0,0,0-2.246-.7,2.2,2.2,0,0,0-2.163.429,4.452,4.452,0,0,0-.352.6,2.209,2.209,0,0,1-1.381.992,5.178,5.178,0,0,1-.85.09.824.824,0,0,0,0-.352c-.359-1.174.667-2.046,2-2.571a33.355,33.355,0,0,0,7-5.472c.59-.949,4.721-3.924,4.721-3.924a12.971,12.971,0,0,0,8.207-8.12c2.027-6.371-9.7,4.449-10.877,4.774a12.026,12.026,0,0,0-2.871,1.545l-7.518,4.348a27.221,27.221,0,0,0-4.054,2.8,13.612,13.612,0,0,0-2.973,4.246s-.72,1.174-1.77,2.874a7.825,7.825,0,0,1-2.293,2.438l.034-.062c-.083.1-2.67,3.368-2.9,4.8s-1.282,7.246-1.282,7.246-.927,4.57-1.563,5.469a15.672,15.672,0,0,1-.822,2.976c-.306.352-1.545,4.069-1.335,4.446,0,0-1.18,2.574-.973,3.547l-2.129,5.1a11.739,11.739,0,0,0-1.078,4c.037.714.068,1.545.09,2.225v.309h0v.309c-.114.192-.408.68-.714,1.27a6.613,6.613,0,0,0-.878,2.592c.049,1.162.053,4-.482,5.04l-.158-.062a2.162,2.162,0,0,0-.309,1.026l.037.019c0,.09-.028.182-.037.281-.13,1.183.059,2.83-.238,3.192-.411.5-.207,11.593-.207,11.593s-.667,6.943.667,11.343l-.1,3.445a32.082,32.082,0,0,0,.1,3.708,36.189,36.189,0,0,1,.207,3.748l.769,5.5s-1.029,8.494-.154,10.592a11.544,11.544,0,0,1,.927,3.649,5.674,5.674,0,0,0,1.415.547v.309l-.2,5.166v.284s-.025.136-.043.361h0v.127a.151.151,0,0,0,0,.037v.108a.761.761,0,0,0,0,.083.578.578,0,0,1,0,.074v.467h0v.451a.9.9,0,0,0,.025.155.157.157,0,0,0,0,.037.787.787,0,0,0,.034.17h0a.654.654,0,0,0,.04.167.041.041,0,0,1,0,.019h0a.3.3,0,0,0,.025.087.153.153,0,0,0,0,.04.5.5,0,0,0,.031.105v.025c.031.087.062.173.1.26a.112.112,0,0,0,0,.028c0,.031.028.065.043.1l.018.043.04.083.025.046.043.077.028.046c0,.025.028.049.043.074a.556.556,0,0,1,.031.049l.046.071.034.046.049.071.037.046.056.068.037.043.065.074.034.037.1.1a.164.164,0,0,0,.034.031.853.853,0,0,0,.077.071l.049.04.068.056.059.043.068.049.065.043.068.043.071.04.071.043.074.037.077.037.077.037.077.034.083.034.083.031.086.031.093.028.145.043.12.031.1.019.1.022h.105l.1.015h1.3l.167-.015h.1l.281-.031s3.5.522,3.615-.862a1.109,1.109,0,0,1,.015-.222v-.176a.443.443,0,0,1,0-.065v-1.758c-.022-.686-.056-1.323-.077-1.678a2.244,2.244,0,0,0-.019-.309s-1.193-1.8-1-2.472a17.792,17.792,0,0,0,.151-2.96s-.463-1.1-.776-2.067c-.025-.074-.046-.148-.068-.219a11.419,11.419,0,0,0,.729-.927,11.742,11.742,0,0,0-.871-7.045.439.439,0,0,1-.189-.362.145.145,0,0,1,0-.037l.6-7.3-.361-4.246s-.257-2.9.309-4.15l1.128-10.991,1.6-6.393s.513-.25.927.952,1.434,6.643,1.434,6.643l2.472,8.995a17.856,17.856,0,0,0,.769,3.649,6.963,6.963,0,0,1,.362,2.447,6.322,6.322,0,0,1,.667,2.3,9.943,9.943,0,0,0,.253,3.248,44.039,44.039,0,0,1,.362,5.253,10.611,10.611,0,0,0,.1,4.548,16.017,16.017,0,0,1,.256,5.2,3.567,3.567,0,0,0,.21.29c-.025.068-.052.136-.077.2-.161.417-.287.711-.287.711a18.226,18.226,0,0,0,.154,2.96c.192.674-1,2.472-1,2.472s0,.111-.018.309c-.022.355-.056.989-.077,1.678v1.761a.392.392,0,0,0,0,.059v.179a1.139,1.139,0,0,0,.015.222c.117,1.384,3.618.862,3.618.862l.281.034h1.564l.105-.019.1-.015.1-.022.1-.019.12-.031.145-.043.09-.028.086-.031a.662.662,0,0,0,.083-.031l.083-.034.08-.034.077-.034.077-.04.071-.037.074-.04.068-.043.071-.043.062-.043.068-.049a.4.4,0,0,0,.059-.043.56.56,0,0,0,.068-.053l.052-.043.077-.068.034-.034.105-.1.031-.037.068-.071.034-.046a.6.6,0,0,0,.059-.068l.034-.046.052-.071.031-.046.049-.071a.416.416,0,0,1,.031-.049c0-.025.028-.049.043-.074l.028-.046c0-.028.028-.053.04-.077a.326.326,0,0,0,.025-.046c0-.028.028-.056.04-.083l.022-.043c0-.031.028-.062.043-.1v-.028c.034-.087.068-.173.1-.26V274.1a.331.331,0,0,1,.034-.1.244.244,0,0,1,0-.043.118.118,0,0,1,.025-.087v-.015a.041.041,0,0,0,0-.019.752.752,0,0,1,.043-.164h0a1.072,1.072,0,0,1,.034-.167v-.04a1.193,1.193,0,0,1,.025-.151.121.121,0,0,0,0-.052v-.4h0v-.541a.761.761,0,0,1,0-.083v-.108a.151.151,0,0,1,0-.037v-.124h0c-.019-.226-.04-.362-.04-.362v-.281l-.195-5v-.309c.287-.161.581-.343.887-.556,0,0-.052-2.849.769-4s-.411-4.15-.411-4.15l-.513-10.744.2-4.944a4.916,4.916,0,0,1-.618-2.4,8.721,8.721,0,0,0-.822-3.09s-.513-1.7.105-2.2-.667-11.433-.667-11.433a103.162,103.162,0,0,0-.278-12.73V209.7l.164-.074c-.049-.38-.1-.735-.161-1.066l-.173.053a8.688,8.688,0,0,0-.309-1.236l-.822-3.773s-.019-.2-.04-.485c-.028-.34-.059-.8-.065-1.205a2.038,2.038,0,0,1,.056-.507l-.043-.037a1.12,1.12,0,0,1,.043-.263l-.179-.151s-.025-.17-.043-.43a4.833,4.833,0,0,1,.223-2.141c.411-.825,4.635-3.949,4.635-3.949l2.367-4.737s2.361-3.325,4.156-3.974,7.388-4.369,7.388-4.369a18.426,18.426,0,0,0,2.1-2.472l.065-.1h.037v-.065l5.253-7.87c2.1-1.7,2.178-5.321,2.178-5.321l.547-8.275-.179-4.894.253-2.781S787.6,137.827,783.2,138Zm-30.09,21.413a6.622,6.622,0,0,0-.871,3.282v.3a6.6,6.6,0,0,0,.7,2.959,2.425,2.425,0,0,0-.51.906,4.913,4.913,0,0,1-1.063-1.993,2.074,2.074,0,0,0-.822-1.347,5.658,5.658,0,0,1,.049-1.774l.028-.025s.022-.037.065-.1h0c.219-.331.958-1.446,1.721-2.716a2.431,2.431,0,0,0,.393.13l.47.117Z" transform="translate(-514.663 -100.838)" fill="url(#linear-gradient)"/>
    <path id="Tracé_9975" data-name="Tracé 9975" d="M855.369,216.567c.046-.105.083-.216.12-.327a6.822,6.822,0,0,0-.309.757C855.245,216.852,855.31,216.71,855.369,216.567Z" transform="translate(-601.953 -160.015)" fill="url(#linear-gradient-2)"/>
    <path id="Tracé_9976" data-name="Tracé 9976" d="M804.605,238.986s-.967,4.61-2.75,5.207,2.163,5.871,2.163,5.871l8.179-.448.148-1.709a8.444,8.444,0,0,1,1.041-7.583C815.973,236.162,804.605,238.986,804.605,238.986Z" transform="translate(-564.765 -175.285)" fill="#f6bac2"/>
    <path id="Tracé_9977" data-name="Tracé 9977" d="M751.861,564.234c-.111,1.375-3.495.856-3.495.856-5.611.779-4.684-4.721-4.684-4.721v-.281l.195-5.129.056-1.431s6.18-2.824,6.022-2.231a3.516,3.516,0,0,0,.25,1.335c.309.961.751,2.049.751,2.049a18.476,18.476,0,0,1-.148,2.935c-.185.667.967,2.453.967,2.453s0,.111.018.309A36.014,36.014,0,0,1,751.861,564.234Z" transform="translate(-524.792 -393.805)" fill="#b77983"/>
    <path id="Tracé_9978" data-name="Tracé 9978" d="M797.412,567.108s-3.384.522-3.495-.856a35.113,35.113,0,0,1,.059-3.865,2.741,2.741,0,0,1,.015-.309s1.153-1.786.967-2.453a18.514,18.514,0,0,1-.148-2.939s.121-.287.278-.7a8.547,8.547,0,0,0,.726-2.679c-.148-.6,6.022,2.228,6.022,2.228l.062,1.6.188,4.959v.281S803.027,567.889,797.412,567.108Z" transform="translate(-559.566 -395.206)" fill="#b77983"/>
    <path id="Tracé_9979" data-name="Tracé 9979" d="M806.927,137.893A12.668,12.668,0,0,1,799,145.948s-3.992,2.96-4.561,3.887a32.782,32.782,0,0,1-6.767,5.429c-1.292.522-2.277,1.387-1.931,2.549.309,1.078-3.071,6.356-3.581,7.141h0l-.062.1-1.066,1.115L777.412,168l-2.948-.942-.374-3.541,1.564-2.781h0a7.671,7.671,0,0,0,2.215-2.419c1.017-1.687,1.712-2.849,1.712-2.849a13.6,13.6,0,0,1,2.874-4.215,26,26,0,0,1,3.915-2.781l7.264-4.326a11.712,11.712,0,0,1,2.781-1.545C797.561,142.271,808.886,131.574,806.927,137.893Z" transform="translate(-545.916 -103.311)" fill="#f6bac2"/>
    <path id="Tracé_9980" data-name="Tracé 9980" d="M777.412,221.274l4.833-.967a.309.309,0,0,0-.086.2h0l-.062.1-1.066,1.115-3.618,1.832-2.948-.942-.374-3.541,1.563-2.781h0a5.543,5.543,0,0,0-.037,5.284Z" transform="translate(-545.868 -160.08)" opacity="0.05"/>
    <path id="Tracé_9981" data-name="Tracé 9981" d="M861.353,268.173a.935.935,0,0,0-.034.1,1.353,1.353,0,0,1-.179.309l-1.95.952-2.976.309L854.67,266.1,855.7,262l.568-.766.158-.173c.059.742.358,4.61.34,5.772-.025,1.289.927,1.39.927,1.39Z" transform="translate(-601.612 -191.319)" opacity="0.05"/>
    <path id="Tracé_9982" data-name="Tracé 9982" d="M783.017,237.341a.883.883,0,0,0-.034.1,18.072,18.072,0,0,1-2.03,2.453s-5.4,3.693-7.138,4.326-4.017,3.94-4.017,3.94l-2.28,4.706s-4.088,3.09-4.484,3.918a4.884,4.884,0,0,0-.213,2.126,2.2,2.2,0,0,0,.037.426l-1.205,1.258-.961,1L759.339,263l-2.2-.309L750.27,261.6l-1.316-.742-7.308-4.116s0-.256-.018-.649c0-.173,0-.371-.019-.59-.022-.667-.053-1.5-.087-2.206a11.914,11.914,0,0,1,1.041-3.964l2.055-5.058c-.2-.964.943-3.519.943-3.519-.2-.371.992-4.063,1.288-4.409a15.717,15.717,0,0,0,.794-2.951c.618-.89,1.511-5.426,1.511-5.426s1.017-5.75,1.236-7.187,2.719-4.656,2.8-4.755a5.631,5.631,0,0,0-.222,5.648l1.786-.309,4.836-.942c-.223.148-.074,1.783-.074,1.783a2.061,2.061,0,0,1,.791,1.338A5.134,5.134,0,0,0,761.4,225.6l.025.028a2.419,2.419,0,0,1,1.165-1.662l1.116,1.489.374,1.783s-.1.25-.745.745.272,1.783.272,1.783a9.086,9.086,0,0,1,.4,2.453h0a3.614,3.614,0,0,1,2.1-.717,6.376,6.376,0,0,0,1.264-1.811.748.748,0,0,1,1.066-.494,6.854,6.854,0,0,1,1.214-.844c.6-.309,1.289.309,1.289.309l.074,2.283s.059.093.154.219c.195.272.544.689.763.618a22.635,22.635,0,0,1,2.8.148s.868.371,1.19-.1a14.658,14.658,0,0,1,2.163-1.709s.355,4.6.355,5.886.927,1.39.927,1.39Z" transform="translate(-523.397 -160.126)" fill="#d39999"/>
    <path id="Tracé_9983" data-name="Tracé 9983" d="M875.855,284.693h-.065C875.907,284.384,875.855,284.693,875.855,284.693Z" transform="translate(-616.211 -207.654)" fill="none"/>
    <circle id="Ellipse_3140" data-name="Ellipse 3140" cx="0.445" cy="0.445" r="0.445" transform="translate(238.916 73.645)" fill="#4b4442"/>
    <circle id="Ellipse_3141" data-name="Ellipse 3141" cx="0.445" cy="0.445" r="0.445" transform="translate(235.677 79.982)" fill="#4b4442"/>
    <circle id="Ellipse_3142" data-name="Ellipse 3142" cx="0.445" cy="0.445" r="0.445" transform="translate(229.3 93.547)" fill="#4b4442"/>
    <circle id="Ellipse_3143" data-name="Ellipse 3143" cx="0.445" cy="0.445" r="0.445" transform="translate(232.315 86.702)" fill="#4b4442"/>
    <path id="Tracé_9984" data-name="Tracé 9984" d="M750.848,552.632c-2.324,2.762-4.833,2.716-6.328,2.327l.056-1.431s6.18-2.824,6.022-2.231A3.282,3.282,0,0,0,750.848,552.632Z" transform="translate(-525.408 -393.667)" opacity="0.05"/>
    <path id="Tracé_9985" data-name="Tracé 9985" d="M804.608,557.173c-3.946,2.28-6.26-.392-6.8-1.149a8.545,8.545,0,0,0,.726-2.679c-.148-.6,6.022,2.228,6.022,2.228Z" transform="translate(-562.276 -395.107)" opacity="0.05"/>
    <path id="Tracé_9986" data-name="Tracé 9986" d="M760.712,408.786c-.791,1.14-.745,3.964-.745,3.964-5.1,3.668-7.78-.794-7.78-.794a16.41,16.41,0,0,0-.247-5.154,10.758,10.758,0,0,1-.1-4.511,43.5,43.5,0,0,0-.349-5.2,9.956,9.956,0,0,1-.247-3.223,6.356,6.356,0,0,0-.643-2.277,7,7,0,0,0-.349-2.429,17.875,17.875,0,0,1-.742-3.621l-2.376-8.921s-.992-5.4-1.387-6.591-.893-.943-.893-.943l-1.428,6.393-1.091,10.9a11.963,11.963,0,0,0-.309,4.116l.346,4.212-.575,7.237a.145.145,0,0,0,0,.037.441.441,0,0,0,.179.358,11.908,11.908,0,0,1,.831,6.989c-3.767,5.454-8.327,2.626-8.327,2.626a11.567,11.567,0,0,0-.89-3.615c-.844-2.083.148-10.506.148-10.506L733,392.382a36.525,36.525,0,0,0-.2-3.708,32.618,32.618,0,0,1-.1-3.668l.1-3.421c-1.289-4.363-.646-11.25-.646-11.25s-.2-11,.2-11.5c.287-.358.105-1.99.229-3.167a2.21,2.21,0,0,1,.29-1.017l.05-.049c.646-.794.646-3.964.593-5.207a6.686,6.686,0,0,1,.85-2.571c.309-.6.59-1.094.7-1.273l.043-.071s2.824.7,10.308,4.264a14.063,14.063,0,0,0,4.258,1.319,9.472,9.472,0,0,0,2.222.034,7.755,7.755,0,0,0,3.2-1.038,5.618,5.618,0,0,0,1.381-1.109,9.234,9.234,0,0,0,0,2c.019.287.04.482.04.482l.825,3.677a9.653,9.653,0,0,1,.309,1.332c.059.328.108.683.154,1.06a102.714,102.714,0,0,1,.269,12.629s1.236,10.855.646,11.349-.1,2.181-.1,2.181a8.8,8.8,0,0,1,.794,3.071,4.944,4.944,0,0,0,.6,2.379l-.2,4.907.519,10.645S761.506,407.646,760.712,408.786Z" transform="translate(-516.781 -250.865)" fill="#8499f0"/>
    <path id="Tracé_9987" data-name="Tracé 9987" d="M806.13,489.067s3.754-2.163,4.573-1.19S806.13,489.067,806.13,489.067Z" transform="translate(-568.028 -349.286)" opacity="0.05"/>
    <path id="Tracé_9988" data-name="Tracé 9988" d="M813.157,496.14s-.618.309.745.7S813.157,496.14,813.157,496.14Z" transform="translate(-572.787 -355.217)" opacity="0.05"/>
    <path id="Tracé_9989" data-name="Tracé 9989" d="M739.992,476.784a5.761,5.761,0,0,0,6.059.408C746.039,477.191,740.724,476.561,739.992,476.784Z" transform="translate(-522.273 -341.689)" opacity="0.05"/>
    <path id="Tracé_9990" data-name="Tracé 9990" d="M752.057,490.24a3.984,3.984,0,0,1-2.713,2.008C747.521,492.508,752.057,490.24,752.057,490.24Z" transform="translate(-528.441 -351.117)" opacity="0.05"/>
    <path id="Tracé_9991" data-name="Tracé 9991" d="M797.71,502.52s4.277,6.8,3.458,8.4S797.71,502.52,797.71,502.52Z" transform="translate(-562.201 -359.76)" opacity="0.05"/>
    <path id="Tracé_9992" data-name="Tracé 9992" d="M773.375,369.09,772.93,382.4s2.639-.111,3.09-4.5.782-7.957.782-7.957Z" transform="translate(-545.058 -266.723)" opacity="0.05"/>
    <path id="Tracé_9993" data-name="Tracé 9993" d="M772.895,368.13l-.445,13.308s2.639-.111,3.09-4.5.788-7.954.788-7.954Z" transform="translate(-544.726 -266.053)" fill="#8499f0"/>
    <path id="Tracé_9994" data-name="Tracé 9994" d="M741.257,369.141s-2.083,5.583-6.847,2.88A2.2,2.2,0,0,1,734.7,371c1.3.547,4.326,1.347,5.562-2.274Z" transform="translate(-518.415 -266.389)" opacity="0.05"/>
    <path id="Tracé_9995" data-name="Tracé 9995" d="M740.777,367.218s-2.083,5.583-6.847,2.88a2.21,2.21,0,0,1,.29-1.017c1.3.55,4.326,1.347,5.562-2.271Z" transform="translate(-518.083 -265.05)" opacity="0.05"/>
    <path id="Tracé_9996" data-name="Tracé 9996" d="M740.777,368.178s-2.083,5.584-6.847,2.88a2.21,2.21,0,0,1,.29-1.017c1.3.55,4.326,1.347,5.562-2.271Z" transform="translate(-518.083 -265.719)" fill="#8499f0"/>
    <path id="Tracé_9997" data-name="Tracé 9997" d="M799.093,377.77c-5.234,2.491-7.153-3.38-7.153-3.38l1.236.037c.216,3.754,4.354,2.744,5.772,2.284C799,377.05,799.047,377.393,799.093,377.77Z" transform="translate(-558.216 -270.336)" opacity="0.05"/>
    <path id="Tracé_9998" data-name="Tracé 9998" d="M800.053,376.323c-5.231,2.487-7.153-3.383-7.153-3.383l1.236.037c.216,3.754,4.354,2.747,5.772,2.287C799.957,375.591,800.007,375.947,800.053,376.323Z" transform="translate(-558.88 -269.325)" opacity="0.05"/>
    <path id="Tracé_9999" data-name="Tracé 9999" d="M799.573,376.8c-5.231,2.487-7.153-3.383-7.153-3.383l1.236.037c.216,3.757,4.354,2.747,5.772,2.287C799.477,376.071,799.527,376.426,799.573,376.8Z" transform="translate(-558.548 -269.66)" fill="#8499f0"/>
    <path id="Tracé_10000" data-name="Tracé 10000" d="M740.777,368.178s-2.083,5.584-6.847,2.88a2.21,2.21,0,0,1,.29-1.017c1.3.55,4.326,1.347,5.562-2.271Z" transform="translate(-518.083 -265.719)" fill="#fff" opacity="0.1"/>
    <path id="Tracé_10001" data-name="Tracé 10001" d="M799.573,376.8c-5.231,2.487-7.153-3.383-7.153-3.383l1.236.037c.216,3.757,4.354,2.747,5.772,2.287C799.477,376.071,799.527,376.426,799.573,376.8Z" transform="translate(-558.548 -269.66)" fill="#fff" opacity="0.1"/>
    <path id="Tracé_10002" data-name="Tracé 10002" d="M751.9,582.817a8.777,8.777,0,0,1-.037,1.029c-.111,1.375-3.495.856-3.495.856-3.09.43-4.2-1.054-4.57-2.472a5.659,5.659,0,0,1-.17-1.409,5.864,5.864,0,0,1,.056-.847v-.281a2.068,2.068,0,0,1,1.922.392,3.264,3.264,0,0,0,3.2.26,4.29,4.29,0,0,1,1.854.556c.29.25.769-.352,1.134-.927.022.371.056,1.041.077,1.758C751.9,582.1,751.9,582.471,751.9,582.817Z" transform="translate(-524.795 -413.487)" opacity="0.05"/>
    <path id="Tracé_10003" data-name="Tracé 10003" d="M746.476,585.483s-.927.908-2.676-.494a5.655,5.655,0,0,1-.17-1.409A16.167,16.167,0,0,0,746.476,585.483Z" transform="translate(-524.786 -416.217)" opacity="0.05"/>
    <path id="Tracé_10004" data-name="Tracé 10004" d="M768.154,587.568a.7.7,0,0,1-1-.161,6.619,6.619,0,0,0,.989-.927C768.148,586.851,768.154,587.222,768.154,587.568Z" transform="translate(-541.055 -418.226)" opacity="0.05"/>
    <path id="Tracé_10005" data-name="Tracé 10005" d="M793.868,584.882a9.522,9.522,0,0,0,.034,1.029c.111,1.378,3.495.856,3.495.856,3.09.433,4.2-1.051,4.57-2.472a5.934,5.934,0,0,0,.114-2.256v-.281a2.092,2.092,0,0,0-1.925.392,3.257,3.257,0,0,1-3.2.26,4.31,4.31,0,0,0-1.854.559c-.29.25-.769-.352-1.131-.927-.022.371-.059,1.041-.08,1.758C793.871,584.162,793.865,584.532,793.868,584.882Z" transform="translate(-559.551 -414.928)" opacity="0.05"/>
    <path id="Tracé_10006" data-name="Tracé 10006" d="M811.43,587.53s.927.908,2.673-.494a5.635,5.635,0,0,0,.173-1.406A16.524,16.524,0,0,1,811.43,587.53Z" transform="translate(-571.691 -417.647)" opacity="0.05"/>
    <path id="Tracé_10007" data-name="Tracé 10007" d="M793.868,589.628a.7.7,0,0,0,1-.161,6.537,6.537,0,0,1-.989-.927C793.871,588.908,793.865,589.279,793.868,589.628Z" transform="translate(-559.538 -419.663)" opacity="0.05"/>
    <path id="Tracé_10008" data-name="Tracé 10008" d="M773.187,285s-4.758,13.135-2.926,14.275S773.187,285,773.187,285Z" transform="translate(-542.921 -208.058)" opacity="0.05"/>
    <path id="Tracé_10009" data-name="Tracé 10009" d="M790.617,271.88s-.9,4.363-.448,4.758S790.617,271.88,790.617,271.88Z" transform="translate(-556.892 -198.842)" opacity="0.05"/>
    <path id="Tracé_10010" data-name="Tracé 10010" d="M810.761,304.77s-5.849,5.451-5.454,5.9S810.761,304.77,810.761,304.77Z" transform="translate(-567.447 -221.791)" opacity="0.05"/>
    <path id="Tracé_10011" data-name="Tracé 10011" d="M820.8,259.486c-2.216.677-7.394,2.259-7.453,2.246l.287-1.18a3.613,3.613,0,0,1,2.1-.717,6.368,6.368,0,0,0,1.264-1.811.748.748,0,0,1,1.066-.494,7.027,7.027,0,0,1,1.214-.844c.6-.309,1.288.309,1.288.309l.074,2.28S820.707,259.359,820.8,259.486Z" transform="translate(-573.028 -188.186)" opacity="0.05"/>
    <path id="Tracé_10012" data-name="Tracé 10012" d="M820.8,258.546c-2.216.677-7.394,2.259-7.453,2.243l.287-1.177a3.614,3.614,0,0,1,2.1-.717,6.368,6.368,0,0,0,1.264-1.811.748.748,0,0,1,1.066-.494,6.852,6.852,0,0,1,1.214-.844c.6-.309,1.288.309,1.288.309l.074,2.283S820.707,258.413,820.8,258.546Z" transform="translate(-573.028 -187.531)" fill="#d39999"/>
    <path id="Tracé_10013" data-name="Tracé 10013" d="M807.569,248.016a9.046,9.046,0,0,1,.4,2.453l-.862.686-1.638-4.721-.074-2.453-.031-.139.025.028a2.407,2.407,0,0,1,1.165-1.659l1.115,1.486.374,1.783s-.1.25-.745.745S807.569,248.016,807.569,248.016Z" transform="translate(-567.492 -178.17)" opacity="0.05"/>
    <path id="Tracé_10014" data-name="Tracé 10014" d="M808.059,247.52a9.082,9.082,0,0,1,.4,2.453l-.862.7-1.638-4.721-.074-2.453-.034-.139.025.028a2.419,2.419,0,0,1,1.165-1.662l1.115,1.489.374,1.783s-.1.25-.745.745S808.059,247.52,808.059,247.52Z" transform="translate(-567.831 -177.828)" fill="#d39999"/>
    <path id="Tracé_10015" data-name="Tracé 10015" d="M818.439,219.382a6.634,6.634,0,1,1-1.942-4.749A6.69,6.69,0,0,1,818.439,219.382Z" transform="translate(-567.304 -157.598)" opacity="0.05"/>
    <path id="Tracé_10016" data-name="Tracé 10016" d="M818.426,218.419a6.653,6.653,0,1,1-1.949-4.742A6.693,6.693,0,0,1,818.426,218.419Z" transform="translate(-567.29 -156.929)" fill="#f6bac2"/>
    <path id="Tracé_10017" data-name="Tracé 10017" d="M820.319,218.4a6.653,6.653,0,0,1-.973,3.476c-.1-.176-.158-.38-.256-.559-.139-.25-.46-.46-.7-.309a.713.713,0,0,0-.219.309c-.195.411-.541.822-.995.813a.986.986,0,0,1-.847-.723,2.97,2.97,0,0,1-.049-1.18,2.691,2.691,0,0,0-.516-2.271,3.381,3.381,0,0,0-1.292-.578,1.7,1.7,0,0,1-1.112-.822c-.124-.309-.093-.637-.2-.927a1.622,1.622,0,0,0-1.2-.884,3.152,3.152,0,0,1-2.1.72,7.885,7.885,0,0,1-2.07-.328,6.693,6.693,0,0,1,12.539,3.254Z" transform="translate(-569.184 -156.895)" opacity="0.05"/>
    <path id="Tracé_10018" data-name="Tracé 10018" d="M810.734,207.913c.111.309.08.643.2.927a1.687,1.687,0,0,0,1.112.822,3.4,3.4,0,0,1,1.292.575,2.7,2.7,0,0,1,.516,2.274,2.97,2.97,0,0,0,.049,1.18.992.992,0,0,0,.847.723,1.229,1.229,0,0,0,.995-.813.721.721,0,0,1,.219-.309c.238-.158.559.053.7.309a3.054,3.054,0,0,0,.4.751.89.89,0,0,0,.813.185,2.049,2.049,0,0,0,.763-.4,4.183,4.183,0,0,0,1.421-1.709,2.453,2.453,0,0,0-.09-2.163,6.493,6.493,0,0,1-.745-1.131c-.253-.738.222-1.5.516-2.222a3.856,3.856,0,0,0,.262-2.1,2.694,2.694,0,0,0-1.1-1.771c-1.174-.782-2.762-.352-4.122-.729a10.451,10.451,0,0,1-1.418-.584,10.5,10.5,0,0,0-2.163-.692,2.106,2.106,0,0,0-2.1.423,4.711,4.711,0,0,0-.34.593,2.135,2.135,0,0,1-1.335.983c-.4.1-.816.071-1.236.13a1.36,1.36,0,0,0-1.029.59,2.048,2.048,0,0,0-.068,1.236,1.255,1.255,0,0,1-.309,1.165c-.158.12-.374.179-.47.349a.491.491,0,0,0,.145.584,1.393,1.393,0,0,0,.59.26,9.032,9.032,0,0,0,2.37.4,3.127,3.127,0,0,0,2.206-.813c-.052.053-.392.031-.454.028A1.805,1.805,0,0,1,810.734,207.913Z" transform="translate(-566.765 -149.413)" fill="#7e646b"/>
    <g id="Groupe_10430" data-name="Groupe 10430" transform="translate(237.599 54.078)" opacity="0.05">
      <path id="Tracé_10019" data-name="Tracé 10019" d="M819.222,225.176a2.1,2.1,0,0,1-.763.4.9.9,0,0,1-.81-.189,3.015,3.015,0,0,1-.4-.751c-.139-.25-.461-.46-.7-.309a.756.756,0,0,0-.219.309,1.21,1.21,0,0,1-1,.813.98.98,0,0,1-.844-.723,2.973,2.973,0,0,1-.052-1.18,2.692,2.692,0,0,0-.513-2.271,3.4,3.4,0,0,0-1.295-.578,1.7,1.7,0,0,1-1.112-.822c-.124-.309-.093-.637-.2-.927a1.616,1.616,0,0,0-1.2-.884,3.207,3.207,0,0,1-2.1.723,9.165,9.165,0,0,1-2.37-.408,1.431,1.431,0,0,1-.59-.257.654.654,0,0,1-.1-.111.865.865,0,0,0-.346.269.491.491,0,0,0,.145.584,1.393,1.393,0,0,0,.59.26,9.032,9.032,0,0,0,2.37.4,3.18,3.18,0,0,0,2.1-.72,1.617,1.617,0,0,1,1.205.881c.111.309.08.643.2.927a1.694,1.694,0,0,0,1.112.822,3.4,3.4,0,0,1,1.292.575,2.7,2.7,0,0,1,.516,2.274,2.97,2.97,0,0,0,.049,1.18.992.992,0,0,0,.847.723,1.229,1.229,0,0,0,.995-.813.72.72,0,0,1,.219-.309c.238-.158.559.053.7.309a2.969,2.969,0,0,0,.4.751.884.884,0,0,0,.809.185,2.049,2.049,0,0,0,.763-.4,4.185,4.185,0,0,0,1.421-1.709,2.749,2.749,0,0,0,.133-.408A4.408,4.408,0,0,1,819.222,225.176Z" transform="translate(-804.565 -215.319)"/>
      <path id="Tracé_10020" data-name="Tracé 10020" d="M854,219.9c.065-.142.127-.284.185-.423a2.828,2.828,0,0,0,.114-.328A7.282,7.282,0,0,0,854,219.9Z" transform="translate(-838.725 -216.106)"/>
      <path id="Tracé_10021" data-name="Tracé 10021" d="M807.069,211.151a1.268,1.268,0,0,0,.281-1.137,5.045,5.045,0,0,1-.059-.714,1.049,1.049,0,0,0-.17.216,2.047,2.047,0,0,0-.068,1.236A2.4,2.4,0,0,1,807.069,211.151Z" transform="translate(-806.242 -209.3)"/>
    </g>
    <path id="Tracé_10022" data-name="Tracé 10022" d="M761.7,350.782c-.575.04-1.381.083-2.351.117-.674.022-1.427.037-2.234.037-.7,0-1.449,0-2.222-.034a47.631,47.631,0,0,1-7.283-.751c-3.21-.618-6.18-1.684-8.034-3.489.309-.6.59-1.1.7-1.273,0-.173,0-.374-.019-.59,3.26,1.545,13.423,5.837,21.213,3.4a2.205,2.205,0,0,0,.037.426l.176.148A9.387,9.387,0,0,0,761.7,350.782Z" transform="translate(-522.018 -249.715)" opacity="0.05"/>
    <path id="Tracé_10023" data-name="Tracé 10023" d="M761.7,349.815c-.575.04-1.381.083-2.351.114-.674.025-1.427.037-2.234.037-.7,0-1.449,0-2.222-.034a47.629,47.629,0,0,1-7.283-.748c-3.21-.618-6.18-1.687-8.034-3.492.309-.6.59-1.094.7-1.273,0-.173,0-.371-.019-.59,3.26,1.545,13.423,5.84,21.213,3.414a2.206,2.206,0,0,0,.037.426l.176.148A9.269,9.269,0,0,0,761.7,349.815Z" transform="translate(-522.018 -249.038)" fill="#4b4442"/>
    <path id="Tracé_10024" data-name="Tracé 10024" d="M309.877,493.683a4.249,4.249,0,0,1-.949-3.235l13.639-111.6,1.131-9.27a4.28,4.28,0,0,1,4.215-3.757l39.95-.266a4.273,4.273,0,0,0,4.246-4.391l-.015-.423a4.276,4.276,0,0,1,4.273-4.422h41.98a4.273,4.273,0,0,1,4.273,4.264,4.569,4.569,0,0,1-.037.575A4.273,4.273,0,0,0,426.71,366l40.317,1.029a4.27,4.27,0,0,1,4.1,4.993L450.976,489.746l-.38,2.225a4.18,4.18,0,0,1-.618,1.594Z" transform="translate(-224.222 -260.972)" fill="#b7b6cc"/>
    <g id="Groupe_10431" data-name="Groupe 10431" transform="translate(160.712 73.866)" opacity="0.5">
      <rect id="Rectangle_1400" data-name="Rectangle 1400" width="81.213" height="24.831" transform="matrix(0.568, -0.823, 0.823, 0.568, 0, 66.817)" fill="url(#linear-gradient-3)"/>
    </g>
    <rect id="Rectangle_1401" data-name="Rectangle 1401" width="23.607" height="80.125" transform="matrix(0.823, 0.568, -0.568, 0.823, 207.219, 74.764)" fill="#f9fafb"/>
    <rect id="Rectangle_1402" data-name="Rectangle 1402" width="16.666" height="16.666" transform="matrix(0.821, 0.571, -0.571, 0.821, 208.581, 78.361)" fill="#f7b643"/>
    <rect id="Rectangle_1403" data-name="Rectangle 1403" width="16.689" height="16.689" transform="matrix(0.823, 0.568, -0.568, 0.823, 197.89, 94.479)" fill="#f7b643" opacity="0.5"/>
    <rect id="Rectangle_1404" data-name="Rectangle 1404" width="16.689" height="16.689" transform="matrix(0.823, 0.568, -0.568, 0.823, 186.466, 110.68)" fill="#f7b643" opacity="0.3"/>
    <g id="Groupe_10432" data-name="Groupe 10432" transform="translate(156.498 69.963)" opacity="0.5">
      <rect id="Rectangle_1405" data-name="Rectangle 1405" width="80.91" height="24.831" transform="matrix(0.28, -0.96, 0.96, 0.28, 0, 77.661)" fill="url(#linear-gradient-4)"/>
    </g>
    <rect id="Rectangle_1406" data-name="Rectangle 1406" width="23.607" height="79.822" transform="matrix(0.96, 0.28, -0.28, 0.96, 179.823, 70.709)" fill="#f9fafb"/>
    <rect id="Rectangle_1407" data-name="Rectangle 1407" width="16.689" height="16.689" transform="matrix(0.96, 0.28, -0.28, 0.96, 182.776, 73.452)" fill="#f97878"/>
    <rect id="Rectangle_1408" data-name="Rectangle 1408" width="16.689" height="16.689" transform="matrix(0.96, 0.28, -0.28, 0.96, 177.139, 92.357)" fill="#f97878" opacity="0.5"/>
    <rect id="Rectangle_1409" data-name="Rectangle 1409" width="16.689" height="16.689" transform="matrix(0.96, 0.28, -0.28, 0.96, 171.503, 111.26)" fill="#f97878" opacity="0.3"/>
    <g id="Groupe_10433" data-name="Groupe 10433" transform="translate(156.564 71.296)" opacity="0.5">
      <rect id="Rectangle_1410" data-name="Rectangle 1410" width="80.91" height="24.831" transform="matrix(0.08, -0.997, 0.997, 0.08, 0, 80.649)" fill="url(#linear-gradient-5)"/>
    </g>
    <rect id="Rectangle_1411" data-name="Rectangle 1411" width="23.607" height="79.822" transform="matrix(0.997, 0.08, -0.08, 0.997, 163.795, 71.904)" fill="#f9fafb"/>
    <rect id="Rectangle_1412" data-name="Rectangle 1412" width="16.689" height="16.689" transform="matrix(0.997, 0.08, -0.08, 0.997, 167.138, 74.02)" fill="#73b53b"/>
    <rect id="Rectangle_1413" data-name="Rectangle 1413" width="16.689" height="16.689" transform="matrix(0.997, 0.08, -0.08, 0.997, 165.524, 93.654)" fill="#73b53b" opacity="0.5"/>
    <rect id="Rectangle_1414" data-name="Rectangle 1414" width="16.689" height="16.689" transform="matrix(0.997, 0.08, -0.08, 0.997, 163.914, 113.294)" fill="#73b53b" opacity="0.3"/>
    <g id="Groupe_10434" data-name="Groupe 10434" transform="translate(152.386 73.411)" opacity="0.5">
      <rect id="Rectangle_1415" data-name="Rectangle 1415" width="24.831" height="80.91" transform="translate(0 1.131) rotate(-2.61)" fill="url(#linear-gradient-6)"/>
    </g>
    <rect id="Rectangle_1416" data-name="Rectangle 1416" width="23.607" height="79.822" transform="translate(153.224 75.046) rotate(-2.61)" fill="#fff"/>
    <rect id="Rectangle_1417" data-name="Rectangle 1417" width="16.689" height="16.689" transform="translate(156.743 76.741) rotate(-2.61)" fill="#6c63ff"/>
    <rect id="Rectangle_1418" data-name="Rectangle 1418" width="16.71" height="16.71" transform="translate(158.31 95.799) rotate(-2.862)" fill="#6c63ff" opacity="0.5"/>
    <rect id="Rectangle_1419" data-name="Rectangle 1419" width="16.689" height="16.689" transform="translate(158.572 116.104) rotate(-2.61)" fill="#6c63ff" opacity="0.3"/>
    <path id="Tracé_10025" data-name="Tracé 10025" d="M319.46,419.96l-20.974,8.114-30.655,11.85c-1.159-2.163-2.864-5.086-4.975-8.575-7.261-12.032-19.275-30.748-29.972-47.2-12.051-18.54-22.424-34.184-22.424-34.184l7.509-2.163L279.3,330Z" transform="translate(-155.997 -240.75)" fill="#e6ecf8"/>
    <path id="Tracé_10026" data-name="Tracé 10026" d="M336.259,419.96l-20.974,8.114a157.648,157.648,0,0,1-35.639,3.275c-7.261-12.032-19.275-30.748-29.972-47.2l-14.9-36.359L296.1,330Z" transform="translate(-172.817 -240.571)" opacity="0.1"/>
    <path id="Tracé_10027" data-name="Tracé 10027" d="M345.333,394.886S312.75,414.161,264.1,409.8L225.32,315.249l18.586-3.2,64.252-11.034,36.461,92.027Z" transform="translate(-166.293 -220.394)" fill="#6c63ff"/>
    <path id="Tracé_10028" data-name="Tracé 10028" d="M386.171,393.087a154.019,154.019,0,0,1-25.48-.726c-9.665-1.137-19.386-3.479-27.72-7.774a84,84,0,0,1-18.119-12.171c-13.512-12.153-21.874-29.537-29.382-60.322l64.252-11.034Z" transform="translate(-207.907 -220.116)" opacity="0.1"/>
    <path id="Tracé_10029" data-name="Tracé 10029" d="M400.324,326.225s-24.018,4.7-48.466,1.808c-9.665-1.137-19.386-3.479-27.72-7.774a84.079,84.079,0,0,1-18.119-12.171c-16.723-15.045-25.554-38.1-34.66-84.664,0,0,39.928,9.638,79.411-11.473C350.759,211.965,364.067,295.017,400.324,326.225Z" transform="translate(-198.175 -157.971)" fill="#f9fafb"/>
    <path id="Tracé_10030" data-name="Tracé 10030" d="M429.369,523.035c-9.665-1.137-19.386-3.479-27.72-7.774a84.08,84.08,0,0,1-18.119-12.171c14.238-1.156,16.284-8.939,16.284-8.939C410.369,510.9,429.369,523.035,429.369,523.035Z" transform="translate(-275.706 -354.191)" opacity="0.1"/>
    <path id="Tracé_10031" data-name="Tracé 10031" d="M338.2,284.644s32.469-1.835,41.535-8.834l1.375,4.419s-21.453,9.464-42.91,9.579Z" transform="translate(-244.338 -201.643)" fill="#6c63ff" opacity="0.3"/>
    <path id="Tracé_10032" data-name="Tracé 10032" d="M338.2,345.494s31.437-1.721,55.189-13.194l.8,1.835s-18.849,11-55.993,13.883Z" transform="translate(-244.351 -241.073)" fill="#6c63ff" opacity="0.3"/>
    <path id="Tracé_10033" data-name="Tracé 10033" d="M346.39,373s31.437-1.721,55.186-13.194l.8,1.835s-18.849,11-55.99,13.883Z" transform="translate(-250.018 -260.27)" fill="#6c63ff" opacity="0.3"/>
    <path id="Tracé_10034" data-name="Tracé 10034" d="M354.57,400.554s31.437-1.721,55.189-13.194l.8,1.835s-18.849,11-55.99,13.883Z" transform="translate(-255.678 -279.494)" fill="#6c63ff" opacity="0.3"/>
    <path id="Tracé_10035" data-name="Tracé 10035" d="M362.76,428.1s31.437-1.721,55.186-13.194l.8,1.835s-18.849,11-55.99,13.883Z" transform="translate(-261.345 -298.718)" fill="#6c63ff" opacity="0.3"/>
    <path id="Tracé_10036" data-name="Tracé 10036" d="M370.94,455.664s31.437-1.721,55.189-13.194l.8,1.835s-18.849,11-55.989,13.883Z" transform="translate(-267.005 -317.949)" fill="#6c63ff" opacity="0.3"/>
    <path id="Tracé_10037" data-name="Tracé 10037" d="M1060.254,827.2s-13.064-.788-11.525,8.368a2.226,2.226,0,0,0,1.162,2.351s.021-.68,1.338-.448a6,6,0,0,0,1.421.068,2.936,2.936,0,0,0,1.733-.717h0s3.674-1.517,5.1-7.518c0,0,1.057-1.31,1.013-1.647l-2.2.927a3.948,3.948,0,0,1,.161,2.911s-.071-2.852-.495-2.781c-.086,0-1.146.55-1.146.55s1.295,2.781.309,4.783c0,0,.371-3.414-.723-4.582l-1.545.905s1.514,2.861.488,5.2c0,0,.263-3.581-.816-4.978l-1.406,1.1s1.424,2.821.556,4.758c0,0-.114-4.171-.862-4.487a8,8,0,0,0-1.415,1.545s.973,2.045.368,3.127c0,0-.371-2.781-.674-2.781a9.18,9.18,0,0,0-1.353,3.09,6.684,6.684,0,0,1,1.057-3.278,3.709,3.709,0,0,0-1.879.973s.192-1.3,2.182-1.415a8.686,8.686,0,0,1,1.282-1.483,8.068,8.068,0,0,0-3.176.368s1.057-1.236,3.541-.671l1.387-1.131a11.407,11.407,0,0,0-3.708.037s1.27-1.088,4.082-.309l1.511-.9a13.755,13.755,0,0,0-3.541-.309s1.394-.754,3.986.062l1.078-.485s-1.625-.309-2.1-.371-.5-.179-.5-.179a5.606,5.606,0,0,1,3.056.34A13.708,13.708,0,0,0,1060.254,827.2Z" transform="translate(-735.857 -586.343)" fill="#3c82ff"/>
    <ellipse id="Ellipse_3144" data-name="Ellipse 3144" cx="9.245" cy="1.564" rx="9.245" ry="1.564" transform="translate(306.154 250.812)" fill="#6c63ff" opacity="0.1"/>
    <ellipse id="Ellipse_3145" data-name="Ellipse 3145" cx="31.517" cy="2.855" rx="31.517" ry="2.855" transform="translate(219.235 243.683)" fill="#6c63ff" opacity="0.1"/>
    <path id="Tracé_10038" data-name="Tracé 10038" d="M1091.327,729.408s-7.363-.445-6.489,4.718a1.258,1.258,0,0,0,.652,1.326s.016-.383.757-.253a3.43,3.43,0,0,0,.8.037,1.65,1.65,0,0,0,.976-.4h0s2.07-.856,2.877-4.239c0,0,.6-.739.572-.927l-1.236.528a2.241,2.241,0,0,1,.09,1.644s-.04-1.61-.278-1.573c-.049,0-.646.309-.646.309a3.666,3.666,0,0,1,.179,2.7s.21-1.925-.408-2.586l-.874.513a3.868,3.868,0,0,1,.275,2.929s.148-2.021-.46-2.806l-.791.618a3.776,3.776,0,0,1,.309,2.682s-.065-2.352-.485-2.528a4.938,4.938,0,0,0-.8.862s.55,1.156.21,1.764c0,0-.21-1.567-.38-1.573a5.167,5.167,0,0,0-.763,1.746,3.782,3.782,0,0,1,.6-1.854,2.07,2.07,0,0,0-1.06.55s.108-.735,1.236-.8a4.933,4.933,0,0,1,.723-.837,4.554,4.554,0,0,0-1.792.207,2.013,2.013,0,0,1,2-.377l.785-.64a6.462,6.462,0,0,0-2.092.022,2.522,2.522,0,0,1,2.3-.167l.853-.51a7.7,7.7,0,0,0-2-.17,3.051,3.051,0,0,1,2.246.034l.618-.272s-.927-.182-1.187-.21-.284-.1-.284-.1a3.188,3.188,0,0,1,1.724.192A7.475,7.475,0,0,0,1091.327,729.408Z" transform="translate(-760.846 -518.772)" fill="#3c82ff"/>
    <ellipse id="Ellipse_3146" data-name="Ellipse 3146" cx="5.213" cy="0.881" rx="5.213" ry="0.881" transform="translate(320.201 216.248)" fill="#6c63ff" opacity="0.1"/>
    <path id="Tracé_10039" data-name="Tracé 10039" d="M947.589,743.9s-8.893-.538-7.842,5.695a1.517,1.517,0,0,0,.788,1.6s0-.463.927-.309a4.061,4.061,0,0,0,.967.046,2,2,0,0,0,1.18-.488h0s2.5-1.032,3.473-5.117c0,0,.72-.89.689-1.122l-1.517.643a2.682,2.682,0,0,1,.108,1.981s-.049-1.941-.337-1.9c-.059,0-.779.377-.779.377a4.444,4.444,0,0,1,.216,3.257s.253-2.324-.491-3.121l-1.057.618a4.674,4.674,0,0,1,.331,3.538s.179-2.438-.553-3.4l-.958.748s.97,1.919.377,3.238c0,0-.074-2.84-.584-3.053a5.818,5.818,0,0,0-.964,1.041s.661,1.394.25,2.129c0,0-.253-1.891-.46-1.9a6.467,6.467,0,0,0-.927,2.11,4.563,4.563,0,0,1,.72-2.231,2.5,2.5,0,0,0-1.276.664s.13-.887,1.483-.964a5.7,5.7,0,0,1,.875-1.007,5.477,5.477,0,0,0-2.163.247,2.424,2.424,0,0,1,2.407-.454l.946-.773a7.862,7.862,0,0,0-2.525.025s.865-.739,2.781-.2l1.029-.618A9.351,9.351,0,0,0,942.29,745a3.694,3.694,0,0,1,2.713.043l.735-.331s-1.106-.216-1.431-.25-.34-.124-.34-.124a3.819,3.819,0,0,1,2.079.229A9.533,9.533,0,0,0,947.589,743.9Z" transform="translate(-660.414 -528.787)" fill="#3c82ff"/>
    <ellipse id="Ellipse_3147" data-name="Ellipse 3147" cx="6.294" cy="1.063" rx="6.294" ry="1.063" transform="translate(274.759 221.893)" fill="#6c63ff" opacity="0.1"/>
    <ellipse id="Ellipse_3148" data-name="Ellipse 3148" cx="9.245" cy="1.564" rx="9.245" ry="1.564" transform="translate(7.641 246.152)" fill="#6c63ff" opacity="0.1"/>
    <path id="Tracé_10040" data-name="Tracé 10040" d="M68.1,819.563s5.271-.161,6.863-1.292,8.111-2.472,8.507-.671,7.926,9.029,1.971,9.078-13.834-.927-15.422-1.894S68.1,819.563,68.1,819.563Z" transform="translate(-57.421 -579.112)" fill="#a8a8a8"/>
    <path id="Tracé_10041" data-name="Tracé 10041" d="M85.532,832.389c-5.954.049-13.834-.927-15.422-1.894-1.205-.735-1.687-3.377-1.854-4.595H68.08s.334,4.255,1.919,5.222,9.489,1.947,15.428,1.916c1.718-.015,2.311-.618,2.28-1.545C87.466,832.036,86.811,832.38,85.532,832.389Z" transform="translate(-57.407 -585.455)" opacity="0.2"/>
    <rect id="Rectangle_1420" data-name="Rectangle 1420" width="52.736" height="94.373" transform="matrix(0.309, -0.951, 0.951, 0.309, 243.113, 50.152)" fill="url(#linear-gradient-7)"/>
    <rect id="Rectangle_1421" data-name="Rectangle 1421" width="52.01" height="93.069" transform="matrix(0.309, -0.951, 0.951, 0.309, 243.844, 50.01)" fill="#f6f7f9"/>
    <g id="Groupe_10435" data-name="Groupe 10435" transform="translate(259.95 18.233)" opacity="0.2">
      <circle id="Ellipse_3149" data-name="Ellipse 3149" cx="9.69" cy="9.69" r="9.69" fill="#6c63ff"/>
    </g>
    <g id="Groupe_10436" data-name="Groupe 10436" transform="translate(292.632 23.655)" opacity="0.2">
      <rect id="Rectangle_1422" data-name="Rectangle 1422" width="2.654" height="42.218" transform="matrix(0.309, -0.951, 0.951, 0.309, 0, 2.524)" fill="#6c63ff"/>
    </g>
    <g id="Groupe_10437" data-name="Groupe 10437" transform="translate(290.54 30.091)" opacity="0.2">
      <rect id="Rectangle_1423" data-name="Rectangle 1423" width="2.654" height="21.506" transform="matrix(0.309, -0.951, 0.951, 0.309, 0, 2.524)" fill="#6c63ff"/>
    </g>
    <g id="Groupe_10438" data-name="Groupe 10438" transform="translate(288.444 36.53)" opacity="0.2">
      <rect id="Rectangle_1424" data-name="Rectangle 1424" width="2.654" height="34.783" transform="matrix(0.309, -0.951, 0.951, 0.309, 0, 2.524)" fill="#6c63ff"/>
    </g>
    <g id="Groupe_10439" data-name="Groupe 10439" transform="translate(286.352 42.024)" opacity="0.2">
      <rect id="Rectangle_1425" data-name="Rectangle 1425" width="2.654" height="42.218" transform="matrix(0.309, -0.951, 0.951, 0.309, 0, 2.524)" fill="#6c63ff"/>
    </g>
    <g id="Groupe_10440" data-name="Groupe 10440" transform="translate(311.603 60.387)" opacity="0.5">
      <rect id="Rectangle_1426" data-name="Rectangle 1426" width="5.132" height="11.683" transform="matrix(0.309, -0.951, 0.951, 0.309, 0, 4.881)" fill="#6c63ff"/>
    </g>
    <path id="Tracé_10042" data-name="Tracé 10042" d="M825.2,453.949a2.849,2.849,0,0,0-.031-.309,1.571,1.571,0,0,0-.053-.309c-.04-.21-.083-.417-.133-.618-.025-.1-.05-.195-.077-.287a7.836,7.836,0,0,0-1.545-2.988c-.04-.049-.083-.1-.124-.142s-.167-.179-.25-.263-.161-.158-.241-.229-.154-.136-.229-.2c-.148-.12-.287-.222-.408-.309a2.518,2.518,0,0,0-.25-.161,1.371,1.371,0,0,0-.581-.188L820,447.822h0l-1.752-.173-6.263-2.432-.247.086a14.2,14.2,0,0,1-.463-1.545,1.384,1.384,0,0,0,.494-.362,1.127,1.127,0,0,0,.34-.436c.158-.365-.145-1.14-.083-1.585a7.481,7.481,0,0,1,.772-2.049,9.5,9.5,0,0,0,1.035-4.416,4.981,4.981,0,0,0-2.058-3.918c-.664-.442-1.446-.677-2.138-1.078-.538-.309-1.01-.723-1.523-1.075a8.757,8.757,0,0,0-8.627-.618,42.1,42.1,0,0,0-3.637,2.367,6.139,6.139,0,0,1-4.11,1.131,1,1,0,0,0-.043.179l-.121-.015c-.247.674.358,1.341.927,1.8a6.258,6.258,0,0,0,3.643,1.777,3.827,3.827,0,0,1,1.585.117,1.453,1.453,0,0,1,.309.185,6.884,6.884,0,0,0,2.163,6.863l-3.2-1.149s-.133.068-.34.2l-4.437-2.954s-8.9-3.226-11.368,1.8,10.713,2.432,10.713,2.432l2.821,1.545a2.568,2.568,0,0,0,.309,1.693l7.691,4.752a40.633,40.633,0,0,1-4.561,1.236c-.658,0-2.472.649-3.624,3.241s-5.275,15.24-8.9,17.347-13.182,16.213-13.182,16.213l.043.111c-.17.046-.337.093-.5.148a10.13,10.13,0,0,0-4.965,3.745,1.588,1.588,0,0,0,1.112,2.506,6.938,6.938,0,0,0,6.826-2.574c.065-.083.124-.167.179-.25a1.32,1.32,0,0,0,.927.043l4.613-3.73s-3.609,3.553-1.492,6.8l-.161.226a51.571,51.571,0,0,0-7.725,16.815s-1.978,1.458-2.141,7.3-2.144,15.24-2.144,15.24-1.316,11.189-.494,14.591c0,0,.1.136.272.343-.062.074-.13.155-.2.235-.72.779-2.018,1.854-3.529,1.545-2.3-.488-2.3,3.566.989,3.89a87.769,87.769,0,0,1,9,1.8,1.894,1.894,0,0,0,2.348-2.021,17.114,17.114,0,0,0-.989-4.462c-.034-.077-.068-.155-.1-.226.1-.093.195-.185.29-.284,0,0,0-7.135,1.156-9.078,0,0,3.13-14.754,2.963-18.484-.127-2.917,8.123-14.279,11.714-19.077l-.031-.182c.927-1.236,1.5-1.978,1.5-1.978l2.778,17.674a25.279,25.279,0,0,0,2.966,6s7.085,13.457,7.91,17.671a13.292,13.292,0,0,0,2.5,5.815l-.213.2a3.607,3.607,0,0,1-3.108,1.115c-2.305-.488-2.305,3.566.989,3.89a88.519,88.519,0,0,1,8.995,1.808,1.9,1.9,0,0,0,2.352-2.024,14.62,14.62,0,0,0-1.267-5.024,3.476,3.476,0,0,0-.188-.309,1.737,1.737,0,0,0,.655-.46s-4.286-10.215-4.286-12.978c0,0-1.811-10.537-7.907-14.427,0,0,.575-13.182,2.311-20.517.043-.179.087-.358.13-.531a48.892,48.892,0,0,0,4.808-1l.164-4.864.825,3.89,9.227-5.673s-.08-1.023-.235-2.589c-.08-.785-.176-1.706-.29-2.7-.093-.8-.2-1.644-.309-2.509-.031-.216-.059-.436-.09-.652-.12-.874-.253-1.758-.4-2.623q-.083-.488-.167-.964c-.077-.423-.155-.837-.235-1.236-.04-.2-.083-.4-.124-.6s-.086-.389-.13-.578-.086-.371-.13-.553c-.025-.09-.046-.179-.068-.266-.046-.176-.093-.349-.139-.516a9.27,9.27,0,0,1-.334-2.126v-.856a6.13,6.13,0,0,1,.083-.853c.018-.139.043-.281.071-.42a9.424,9.424,0,0,1,.466-1.656c.1-.269.219-.535.346-.8.309-.618.618-1.276.945-1.978.167-.349.334-.708.5-1.072s.337-.735.507-1.112c1.6-3.575,3.186-7.558,3.609-10.175.043-.275.077-.535.093-.779A4.991,4.991,0,0,0,825.2,453.949Z" transform="translate(-537.013 -310.068)" fill="url(#linear-gradient-8)"/>
    <path id="Tracé_10043" data-name="Tracé 10043" d="M841.953,471.514l-5.435-3.674s-8.63-3.2-11.028,1.758,10.388,2.4,10.388,2.4l5.435,3.034Z" transform="translate(-581.238 -334.855)" fill="#ae6e79"/>
    <rect id="Rectangle_1427" data-name="Rectangle 1427" width="51.986" height="80.929" transform="matrix(0.541, -0.841, 0.841, 0.541, 201.508, 166.082)" fill="#f9fafb"/>
    <rect id="Rectangle_1428" data-name="Rectangle 1428" width="14.708" height="3.461" transform="matrix(0.536, -0.844, 0.844, 0.536, 211.933, 163.59)" fill="#b7b6cc"/>
    <rect id="Rectangle_1429" data-name="Rectangle 1429" width="32.302" height="3.173" transform="matrix(0.536, -0.844, 0.844, 0.536, 221.229, 166.176)" fill="#b7b6cc"/>
    <rect id="Rectangle_1430" data-name="Rectangle 1430" width="32.302" height="3.173" transform="matrix(0.536, -0.844, 0.844, 0.536, 226.935, 169.723)" fill="#b7b6cc"/>
    <rect id="Rectangle_1431" data-name="Rectangle 1431" width="32.302" height="3.173" transform="matrix(0.536, -0.844, 0.844, 0.536, 232.639, 173.277)" fill="#b7b6cc"/>
    <rect id="Rectangle_1432" data-name="Rectangle 1432" width="32.257" height="3.169" transform="matrix(0.541, -0.841, 0.841, 0.541, 238.542, 178.425)" fill="#b7b6cc"/>
    <rect id="Rectangle_1433" data-name="Rectangle 1433" width="32.302" height="3.173" transform="matrix(0.536, -0.844, 0.844, 0.536, 244.05, 180.377)" fill="#fff"/>
    <rect id="Rectangle_1434" data-name="Rectangle 1434" width="32.302" height="3.173" transform="matrix(0.536, -0.844, 0.844, 0.536, 249.756, 183.924)" fill="#fff"/>
    <rect id="Rectangle_1435" data-name="Rectangle 1435" width="8.364" height="8.364" transform="matrix(0.536, -0.844, 0.844, 0.536, 273.73, 168.596)" fill="#b7b6cc"/>
    <path id="Tracé_10044" data-name="Tracé 10044" d="M906.289,825.966a84.821,84.821,0,0,0-8.726-1.78c-3.2-.309-3.2-4.326-.958-3.838a3.461,3.461,0,0,0,3.013-1.1,7.066,7.066,0,0,0,.618-.677,1.854,1.854,0,0,1,1.035-.634c1.2-.26,3.708-.655,5.225.17a2.259,2.259,0,0,1,.828.908,14.84,14.84,0,0,1,1.236,4.944,1.854,1.854,0,0,1-2.271,2Z" transform="translate(-629.547 -579.73)" fill="#bebed0"/>
    <path id="Tracé_10045" data-name="Tracé 10045" d="M775.424,831.165a84.6,84.6,0,0,0-8.723-1.78c-3.2-.309-3.2-4.326-.961-3.835a3.834,3.834,0,0,0,3.421-1.511c.086-.093.164-.182.229-.266a1.854,1.854,0,0,1,1.032-.618c1.2-.263,3.708-.658,5.228.17a2.828,2.828,0,0,1,1.1,1.461,17.3,17.3,0,0,1,.958,4.4,1.854,1.854,0,0,1-2.28,1.981Z" transform="translate(-539.013 -583.332)" fill="#bebed0"/>
    <path id="Tracé_10046" data-name="Tracé 10046" d="M787.916,824.775c-3.816,3.933-7.088-.074-7.586-.735.086-.093.164-.182.229-.266a1.855,1.855,0,0,1,1.032-.618c1.2-.263,3.708-.658,5.228.17A2.668,2.668,0,0,1,787.916,824.775Z" transform="translate(-550.184 -583.332)" opacity="0.1"/>
    <path id="Tracé_10047" data-name="Tracé 10047" d="M917.6,819.019c-1.653,1.128-7.218.85-7.218.85a5.224,5.224,0,0,1-.5-.618,7.034,7.034,0,0,0,.618-.677,1.854,1.854,0,0,1,1.035-.633c1.2-.26,3.708-.655,5.225.17A2.257,2.257,0,0,1,917.6,819.019Z" transform="translate(-639.81 -579.73)" opacity="0.1"/>
    <path id="Tracé_10048" data-name="Tracé 10048" d="M827.648,699.7c-1.122,1.44-7.512,1.119-7.512,1.119a12.25,12.25,0,0,1-2.719-6.072c-.8-4.153-7.672-17.421-7.672-17.421a25.129,25.129,0,0,1-2.877-5.914l-2.716-17.421s-13.1,17.26-12.944,20.937-2.88,18.231-2.88,18.231c-1.119,1.919-1.119,8.961-1.119,8.961-4.153,4.326-7.669-.8-7.669-.8-.8-3.356.479-14.384.479-14.384A111.81,111.81,0,0,0,782.1,671.91c.158-5.753,2.08-7.19,2.08-7.19a51.253,51.253,0,0,1,7.505-16.581c.964-1.381,1.6-2.12,1.6-2.12l25.891,3.037a16.292,16.292,0,0,0-1.112,3.43c-1.684,7.23-2.243,20.224-2.243,20.224,5.914,3.835,7.672,14.214,7.672,14.214C823.492,689.628,827.648,699.7,827.648,699.7Z" transform="translate(-549.538 -461.157)" fill="#5c5c8e"/>
    <g id="Groupe_10441" data-name="Groupe 10441" transform="translate(233.411 184.857)" opacity="0.05">
      <path id="Tracé_10049" data-name="Tracé 10049" d="M810.945,673.939l-.334-2.129s-13.1,17.26-12.944,20.937-2.877,18.23-2.877,18.23c-1.122,1.919-1.122,8.961-1.122,8.961a5.462,5.462,0,0,1-2.5,1.6c1.258.331,2.781.086,4.419-1.6,0,0,0-7.033,1.119-8.961,0,0,3.037-14.544,2.877-18.23C799.46,689.871,807.46,678.667,810.945,673.939Z" transform="translate(-791.17 -663.835)"/>
      <path id="Tracé_10050" data-name="Tracé 10050" d="M854.947,686.9s-1.758-10.388-7.669-14.214c0,0,.559-12.993,2.24-20.224a16.282,16.282,0,0,1,1.115-3.43L824.743,646s-.062.068-.173.2l24.145,2.833a16.308,16.308,0,0,0-1.112,3.43c-1.684,7.23-2.243,20.224-2.243,20.224,5.914,3.834,7.672,14.214,7.672,14.214,0,2.716,4.156,12.786,4.156,12.786-.661.847-3.152,1.085-5.089,1.137,1.545.04,6.078.056,7-1.137C859.1,699.684,854.947,689.614,854.947,686.9Z" transform="translate(-814.25 -646)"/>
    </g>
    <path id="Tracé_10051" data-name="Tracé 10051" d="M789.525,632.595a5.843,5.843,0,0,1-.757,1.323,6.681,6.681,0,0,1-6.619,2.537,1.573,1.573,0,0,1-1.082-2.472,9.848,9.848,0,0,1,4.817-3.708,8.791,8.791,0,0,1,2.042-.414Z" transform="translate(-550.496 -448.563)" fill="#ae6e79"/>
    <path id="Tracé_10052" data-name="Tracé 10052" d="M883.916,483.567,871.1,478.88s-3.677,1.919-2.237,4.635l12.48,7.833Z" transform="translate(-611.217 -343.316)" fill="#42383c"/>
    <path id="Tracé_10053" data-name="Tracé 10053" d="M884.069,483.737l-12.82-4.687s-3.677,1.916-2.237,4.635l12.465,7.83Z" transform="translate(-611.321 -343.434)" opacity="0.1"/>
    <path id="Tracé_10054" data-name="Tracé 10054" d="M904.4,468.345s-.161,7.512,3.2,10.07-9.752,4-9.752,4,2.08-7.672,0-11.668S904.4,468.345,904.4,468.345Z" transform="translate(-631.268 -335.768)" fill="#ae6e79"/>
    <path id="Tracé_10055" data-name="Tracé 10055" d="M846.914,648.987a16.3,16.3,0,0,0-1.112,3.43c-15.45,2.361-26.218-4.069-26.218-4.069-.059-.093-.114-.185-.164-.278.964-1.381,1.6-2.12,1.6-2.12Z" transform="translate(-577.267 -459.791)" opacity="0.1"/>
    <path id="Tracé_10056" data-name="Tracé 10056" d="M800.95,632.629a5.835,5.835,0,0,1-.757,1.322c-1.48-.247-2.664-3.09-2.883-3.627a8.79,8.79,0,0,1,2.042-.414Z" transform="translate(-561.924 -448.557)" opacity="0.1"/>
    <path id="Tracé_10057" data-name="Tracé 10057" d="M837.427,490.78l-5.753,2.076-2.4,3.2s-4.944,1.6-5.593,1.6-2.4.64-3.516,3.2-5.114,15.029-8.63,17.1-12.786,15.981-12.786,15.981,1.6,4.326,3.516,3.677l4.474-3.677s-3.516,3.516-1.44,6.714c0,0,13.107,7.83,31.168,3.034l.158-4.792.8,3.835,8.961-5.593s-.8-10.317-2.243-15.567a9.492,9.492,0,0,1,.618-6.616c2.321-4.836,5.9-12.913,5.466-15.858A7.356,7.356,0,0,0,847,493.657a1.335,1.335,0,0,0-.562-.188l-2.926-.29Z" transform="translate(-563.019 -352.25)" fill="#42383c"/>
    <path id="Tracé_10058" data-name="Tracé 10058" d="M847.429,542.76s-3.2,14.863-6.714,17.26-12.944,10.07-13.265,11.349" transform="translate(-582.807 -388.125)" opacity="0.05"/>
    <path id="Tracé_10059" data-name="Tracé 10059" d="M842.776,541.21s-3.2,14.863-6.711,17.26-12.947,10.07-13.265,11.346" transform="translate(-579.59 -387.043)" fill="#42383c"/>
    <path id="Tracé_10060" data-name="Tracé 10060" d="M897.28,501.153s11.028-3.677,14.214-2.719" transform="translate(-631.107 -356.73)" opacity="0.1"/>
    <g id="Groupe_10442" data-name="Groupe 10442" transform="translate(273.845 138.575)" opacity="0.05">
      <path id="Tracé_10061" data-name="Tracé 10061" d="M930.825,520.692c2.321-4.836,5.9-12.913,5.466-15.858a7.356,7.356,0,0,0-3.226-5.432,1.333,1.333,0,0,0-.562-.188l-1.236-.124a1.232,1.232,0,0,1,.371.151,7.373,7.373,0,0,1,3.223,5.435c.436,2.942-3.146,11.022-5.463,15.858a9.486,9.486,0,0,0-.618,6.612c1.446,5.253,2.246,15.567,2.246,15.567l-7.706,4.817.195.927,8.961-5.593s-.8-10.317-2.243-15.567A9.491,9.491,0,0,1,930.825,520.692Z" transform="translate(-922.964 -496.522)"/>
      <path id="Tracé_10062" data-name="Tracé 10062" d="M893.806,462.587l1.384.139-6.019-2.376-.541.195Z" transform="translate(-888.63 -460.35)"/>
    </g>
    <path id="Tracé_10063" data-name="Tracé 10063" d="M887.45,586.377s4.944-2.716,6.554-2.076,7.512-.161,7.512-.161" transform="translate(-624.305 -416.608)" opacity="0.05"/>
    <path id="Tracé_10064" data-name="Tracé 10064" d="M903.873,471.774c-.182-1.6.559-1.36.559-1.36s-8.63-1.6-6.554,2.4a9.154,9.154,0,0,1,.878,3.513h.083C901.237,476.329,902.637,473.647,903.873,471.774Z" transform="translate(-631.282 -337.117)" opacity="0.05"/>
    <circle id="Ellipse_3150" data-name="Ellipse 3150" cx="6.872" cy="6.872" r="6.872" transform="translate(260.677 124.918)" fill="#ae6e79"/>
    <path id="Tracé_10065" data-name="Tracé 10065" d="M880.2,446.155a9.58,9.58,0,0,0,1-4.354,4.937,4.937,0,0,0-2-3.866c-.643-.433-1.4-.664-2.073-1.06-.522-.309-.983-.714-1.48-1.06a8.377,8.377,0,0,0-8.368-.618,38.472,38.472,0,0,0-3.526,2.336,5.907,5.907,0,0,1-3.986,1.115c-.241.664.349,1.319.89,1.777a6.016,6.016,0,0,0,3.535,1.749,3.7,3.7,0,0,1,1.545.117,2.216,2.216,0,0,1,.785.729,14.4,14.4,0,0,1,1.631,2.766,2.292,2.292,0,0,0,.729,1.075c.618.4,1.418.065,2.163.037a4.451,4.451,0,0,1,3,1.437,9.168,9.168,0,0,0,2.707,2.049c.794.309,2.382.29,2.781-.658.151-.358-.142-1.125-.08-1.563a7.563,7.563,0,0,1,.735-2.008Z" transform="translate(-605.137 -312.297)" opacity="0.1"/>
    <path id="Tracé_10066" data-name="Tracé 10066" d="M880.667,445.625a9.537,9.537,0,0,0,1-4.351,4.943,4.943,0,0,0-1.993-3.865c-.646-.436-1.406-.667-2.073-1.063-.522-.309-.983-.711-1.48-1.06a8.377,8.377,0,0,0-8.368-.618A38.424,38.424,0,0,0,864.232,437a5.891,5.891,0,0,1-3.986,1.115c-.241.667.346,1.322.89,1.777a6.037,6.037,0,0,0,3.535,1.752,3.649,3.649,0,0,1,1.545.117,2.164,2.164,0,0,1,.785.729,14.222,14.222,0,0,1,1.628,2.762,2.3,2.3,0,0,0,.732,1.075c.618.4,1.418.065,2.163.037a4.455,4.455,0,0,1,3,1.44,9.1,9.1,0,0,0,2.71,2.046c.794.309,2.382.29,2.781-.658.155-.358-.139-1.125-.077-1.564A7.553,7.553,0,0,1,880.667,445.625Z" transform="translate(-605.461 -311.927)" fill="#42383c"/>
    <path id="Tracé_10067" data-name="Tracé 10067" d="M449.971,541.413a3.186,3.186,0,0,1-2.046.723l-138.049-.587a4.249,4.249,0,0,1-.949-3.235l13.639-111.6,8.553-.093a3.232,3.232,0,0,1,3.152,2.385l1.6,5.9a3.232,3.232,0,0,0,3.2,2.385l34.134-.819a3.232,3.232,0,0,0,3.155-3.232v-3.906a3.232,3.232,0,0,1,3.2-3.232l47.3-.51a3.232,3.232,0,0,1,3.2,2.623L450.973,537.6l.136.7A3.213,3.213,0,0,1,449.971,541.413Z" transform="translate(-224.182 -308.838)" opacity="0.1"/>
    <path id="Tracé_10068" data-name="Tracé 10068" d="M362.42,430.6l-47.3.51a3.232,3.232,0,0,0-3.2,3.229v3.909a3.232,3.232,0,0,1-3.152,3.229l-34.131.819a3.229,3.229,0,0,1-3.2-2.385l-1.6-5.892a3.229,3.229,0,0,0-3.155-2.385l-45.592.491a3.229,3.229,0,0,0-3.152,3.77l18.342,107.95a3.232,3.232,0,0,0,3.173,2.691l144.034.618a3.232,3.232,0,0,0,3.186-3.838L365.624,433.223A3.229,3.229,0,0,0,362.42,430.6Z" transform="translate(-161.212 -312.299)" fill="#e6e8ee"/>
    <path id="Tracé_10069" data-name="Tracé 10069" d="M869.067,165.63l-.247,2.75.179,4.864-.522,8.2s-.074,3.594-2.1,5.278l-5.182,7.957-.031.015-1.95.952-2.976.309-1.545-3.742,1.023-4.11.568-.766.158-.173c.618-.68,3-3.149,4.9-3.918a2.681,2.681,0,0,0,1.041-2.379c-.223-1.452,1.706-9.171,1.706-9.171s1.236-5.1.967-5.6-.049-11.8,4.215-11.97S869.067,165.63,869.067,165.63Z" transform="translate(-601.646 -115.904)" fill="#f6bac2"/>
    <ellipse id="Ellipse_3151" data-name="Ellipse 3151" cx="5.009" cy="0.689" rx="5.009" ry="0.689" transform="translate(41.782 210.528)" fill="#6c63ff" opacity="0.1"/>
    <ellipse id="Ellipse_3152" data-name="Ellipse 3152" cx="5.009" cy="0.689" rx="5.009" ry="0.689" transform="translate(22.597 212.472)" fill="#6c63ff" opacity="0.1"/>
    <ellipse id="Ellipse_3153" data-name="Ellipse 3153" cx="5.009" cy="0.689" rx="5.009" ry="0.689" transform="translate(0 209.839)" fill="#6c63ff" opacity="0.1"/>
    <ellipse id="Ellipse_3154" data-name="Ellipse 3154" cx="3.56" cy="0.488" rx="3.56" ry="0.488" transform="translate(31.724 218.213)" fill="#6c63ff" opacity="0.1"/>
    <ellipse id="Ellipse_3155" data-name="Ellipse 3155" cx="3.56" cy="0.488" rx="3.56" ry="0.488" transform="translate(11.813 217.725)" fill="#6c63ff" opacity="0.1"/>
    <path id="Tracé_10070" data-name="Tracé 10070" d="M74.835,652.062s7.023-23.026-1.1-32.25c-6.078-6.9-12.978-6.075-16.068-5.222a5.713,5.713,0,0,0-3.683,3.062c-1.081,2.33-.887,6.112,6.739,10.527,12.765,7.391,13.559,17.529,13.559,17.529Z" transform="translate(-47.338 -438.063)" fill="#3c82ff"/>
    <path id="Tracé_10071" data-name="Tracé 10071" d="M70.54,626.41s20.7,6.489,16.068,34.206" transform="translate(-59.107 -446.633)" fill="none" stroke="#565987" stroke-miterlimit="10" stroke-width="1"/>
    <path id="Tracé_10072" data-name="Tracé 10072" d="M104.934,633.92s-2.852,1.922-1.944,4.811" transform="translate(-81.407 -451.366)" fill="none" stroke="#565987" stroke-miterlimit="10" stroke-width="1"/>
    <path id="Tracé_10073" data-name="Tracé 10073" d="M77.26,637.024a3.594,3.594,0,0,1,3.866-.794" transform="translate(-63.751 -452.715)" fill="none" stroke="#565987" stroke-miterlimit="10" stroke-width="1"/>
    <path id="Tracé_10074" data-name="Tracé 10074" d="M103.75,667.015s3.062-1.545,3.853.392" transform="translate(-82.056 -473.981)" fill="none" stroke="#565987" stroke-miterlimit="10" stroke-width="1"/>
    <path id="Tracé_10075" data-name="Tracé 10075" d="M123.029,678.765s-2.3-.182-2.339.927" transform="translate(-93.761 -482.575)" fill="none" stroke="#565987" stroke-miterlimit="10" stroke-width="1"/>
    <path id="Tracé_10076" data-name="Tracé 10076" d="M95.69,701.064S87.462,684.329,85.2,684.687c-1.072.176-1.567,1.236-1.792,2.293a6.733,6.733,0,0,0,.448,4.073A18.032,18.032,0,0,0,95.69,701.064Z" transform="translate(-67.909 -486.975)" fill="#3c82ff"/>
    <path id="Tracé_10077" data-name="Tracé 10077" d="M89.71,695s8.633,12.52,10.3,13.07" transform="translate(-72.354 -494.114)" fill="none" stroke="#565987" stroke-miterlimit="10" stroke-width="1"/>
    <line id="Ligne_5" data-name="Ligne 5" x2="2.015" transform="translate(16.562 203.026)" fill="none" stroke="#565987" stroke-miterlimit="10" stroke-width="1"/>
    <line id="Ligne_6" data-name="Ligne 6" x2="3.161" y2="0.136" transform="translate(18.975 206.533)" fill="none" stroke="#565987" stroke-miterlimit="10" stroke-width="1"/>
    <line id="Ligne_7" data-name="Ligne 7" x1="0.343" y2="1.647" transform="translate(20.557 202.868)" fill="none" stroke="#565987" stroke-miterlimit="10" stroke-width="1"/>
    <line id="Ligne_8" data-name="Ligne 8" x1="0.062" y2="1.496" transform="translate(24.197 207.877)" fill="none" stroke="#565987" stroke-miterlimit="10" stroke-width="1"/>
    <path id="Tracé_10078" data-name="Tracé 10078" d="M122.66,701.064s8.225-16.735,10.484-16.377c1.075.176,1.57,1.236,1.792,2.293a6.733,6.733,0,0,1-.448,4.073A18.041,18.041,0,0,1,122.66,701.064Z" transform="translate(-95.123 -486.975)" fill="#3c82ff"/>
    <path id="Tracé_10079" data-name="Tracé 10079" d="M133.355,695s-8.652,12.52-10.3,13.07" transform="translate(-95.392 -494.114)" fill="none" stroke="#565987" stroke-miterlimit="10" stroke-width="1"/>
    <line id="Ligne_9" data-name="Ligne 9" x1="2.015" transform="translate(36.742 203.026)" fill="none" stroke="#565987" stroke-miterlimit="10" stroke-width="1"/>
    <line id="Ligne_10" data-name="Ligne 10" x1="3.161" y2="0.136" transform="translate(33.183 206.533)" fill="none" stroke="#565987" stroke-miterlimit="10" stroke-width="1"/>
    <line id="Ligne_11" data-name="Ligne 11" x2="0.343" y2="1.647" transform="translate(34.419 202.868)" fill="none" stroke="#565987" stroke-miterlimit="10" stroke-width="1"/>
    <line id="Ligne_12" data-name="Ligne 12" x2="0.062" y2="1.496" transform="translate(31.06 207.877)" fill="none" stroke="#565987" stroke-miterlimit="10" stroke-width="1"/>
    <path id="Tracé_10080" data-name="Tracé 10080" d="M75.847,745.266a1.422,1.422,0,0,1-.467-.708.618.618,0,0,1,.328-.72.908.908,0,0,1,.865.309,1.105,1.105,0,0,0,.837.392,1.279,1.279,0,0,1-.4-1.2.488.488,0,0,1,.108-.244c.167-.179.47-.1.671.04a2.537,2.537,0,0,1,.816,2.086,3.988,3.988,0,0,0,0-.859.881.881,0,0,1,.346-.751.964.964,0,0,1,.491-.117,1.019,1.019,0,0,1,.8.229.794.794,0,0,1-.031.979,3.152,3.152,0,0,1-.828.661,1.854,1.854,0,0,0-.59.565.415.415,0,0,0-.043.1h-1.8A4.989,4.989,0,0,1,75.847,745.266Z" transform="translate(-62.437 -528.165)" fill="#3c82ff"/>
    <path id="Tracé_10081" data-name="Tracé 10081" d="M177.3,723.487a1.4,1.4,0,0,1-.467-.7.618.618,0,0,1,.324-.72.908.908,0,0,1,.865.309,1.139,1.139,0,0,0,.844.4,1.279,1.279,0,0,1-.4-1.2.492.492,0,0,1,.111-.244c.167-.179.47-.1.671.037a2.5,2.5,0,0,1,.816,2.089,4.015,4.015,0,0,0,0-.862.884.884,0,0,1,.309-.76.985.985,0,0,1,.491-.114,1.032,1.032,0,0,1,.8.226.794.794,0,0,1-.034.983,3.089,3.089,0,0,1-.825.661,1.834,1.834,0,0,0-.59.562.508.508,0,0,0-.043.1h-1.758A4.947,4.947,0,0,1,177.3,723.487Z" transform="translate(-132.539 -513.128)" fill="#3c82ff"/>
    <path id="Tracé_10082" data-name="Tracé 10082" d="M143.48,745.3a1.45,1.45,0,0,1-.47-.708.618.618,0,0,1,.328-.72.908.908,0,0,1,.865.309,1.149,1.149,0,0,0,.844.408,1.289,1.289,0,0,1-.4-1.2.491.491,0,0,1,.111-.244c.167-.179.47-.1.671.04a2.5,2.5,0,0,1,.816,2.086,3.99,3.99,0,0,0,0-.859.884.884,0,0,1,.324-.76.955.955,0,0,1,.491-.117,1.023,1.023,0,0,1,.8.229.791.791,0,0,1-.034.979,3.139,3.139,0,0,1-.825.661,1.852,1.852,0,0,0-.59.565.417.417,0,0,0-.043.1h-1.792A5.04,5.04,0,0,1,143.48,745.3Z" transform="translate(-109.17 -528.2)" fill="#3c82ff"/>
    <path id="Tracé_10083" data-name="Tracé 10083" d="M45.317,706.25s-.671.878.309,2.2,1.789,2.444,1.462,3.269c0,0-1.48-2.472-2.685-2.494S43.991,707.718,45.317,706.25Z" transform="translate(-40.636 -502.776)" fill="#3c82ff"/>
    <path id="Tracé_10084" data-name="Tracé 10084" d="M45.322,706.25a1.107,1.107,0,0,0-.136.275c-1.174,1.381-1.8,2.67-.671,2.7,1.051.031,2.314,1.91,2.614,2.385a1.1,1.1,0,0,1-.034.108s-1.48-2.472-2.685-2.494S44,707.718,45.322,706.25Z" transform="translate(-40.641 -502.776)" opacity="0.1"/>
    <path id="Tracé_10085" data-name="Tracé 10085" d="M44.66,709.427c0,.309.034.559.077.559s.077-.25.077-.559-.043-.164-.087-.164S44.66,709.118,44.66,709.427Z" transform="translate(-41.224 -504.835)" fill="#ffd037"/>
    <path id="Tracé_10086" data-name="Tracé 10086" d="M42.9,710.6c.272.148.507.235.528.2s-.182-.185-.454-.334-.164-.04-.185,0S42.627,710.448,42.9,710.6Z" transform="translate(-39.892 -505.633)" fill="#ffd037"/>
    <path id="Tracé_10087" data-name="Tracé 10087" d="M56.035,706.25s.674.878-.309,2.2-1.789,2.444-1.462,3.269c0,0,1.48-2.472,2.685-2.494S57.36,707.718,56.035,706.25Z" transform="translate(-47.809 -502.776)" fill="#3c82ff"/>
    <path id="Tracé_10088" data-name="Tracé 10088" d="M56.118,706.25a1.173,1.173,0,0,1,.139.275c1.174,1.381,1.8,2.67.671,2.7-1.051.031-2.314,1.91-2.617,2.385a.638.638,0,0,0,.037.108s1.48-2.472,2.685-2.494S57.443,707.718,56.118,706.25Z" transform="translate(-47.892 -502.776)" opacity="0.1"/>
    <path id="Tracé_10089" data-name="Tracé 10089" d="M63.854,709.427c0,.309-.034.559-.077.559s-.077-.25-.077-.559.043-.164.087-.164S63.854,709.118,63.854,709.427Z" transform="translate(-54.381 -504.835)" fill="#ffd037"/>
    <path id="Tracé_10090" data-name="Tracé 10090" d="M64.406,710.6c-.272.148-.51.235-.528.2s.182-.185.454-.334.164-.04.182,0S64.675,710.448,64.406,710.6Z" transform="translate(-54.502 -505.633)" fill="#ffd037"/>
    <path id="Tracé_10091" data-name="Tracé 10091" d="M47.9,721.323a6.9,6.9,0,0,1-2.441-.46c-.565-.4-2.886-.884-3.028-.238s-2.818,3.214-.7,3.229a18.043,18.043,0,0,0,5.488-.674C47.778,722.837,47.9,721.323,47.9,721.323Z" transform="translate(-38.635 -512.491)" fill="#a8a8a8"/>
    <path id="Tracé_10092" data-name="Tracé 10092" d="M41.691,725.888a17.839,17.839,0,0,0,5.488-.674c.43-.26.6-1.2.658-1.635H47.9s-.117,1.514-.683,1.854a18.028,18.028,0,0,1-5.488.674c-.618,0-.822-.222-.81-.544C41,725.764,41.253,725.873,41.691,725.888Z" transform="translate(-38.638 -514.751)" opacity="0.2"/>
    <circle id="Ellipse_3156" data-name="Ellipse 3156" cx="6.684" cy="6.684" r="6.684" transform="translate(3.804 32.468)" fill="#3c82ff"/>
    <circle id="Ellipse_3157" data-name="Ellipse 3157" cx="6.684" cy="6.684" r="6.684" transform="translate(333.171 99.246)" fill="#3c82ff"/>
    <circle id="Ellipse_3158" data-name="Ellipse 3158" cx="6.684" cy="6.684" r="6.684" transform="translate(204.493 11.244)" fill="#3c82ff"/>
    <circle id="Ellipse_3159" data-name="Ellipse 3159" cx="11.201" cy="11.201" r="11.201" transform="translate(12.653 63.359)" fill="#3c82ff"/>
    <path id="Tracé_10093" data-name="Tracé 10093" d="M462.556,608.737l-.4-.4a.423.423,0,0,1,0-.618l3.47-3.473a.423.423,0,0,1,.618,0l3.47,3.47a.429.429,0,0,1,0,.618l-.4.4a.43.43,0,0,1-.618,0l-2.052-2.163V611.7a.426.426,0,0,1-.426.429h-.572a.429.429,0,0,1-.429-.429v-5.126l-2.052,2.163a.429.429,0,0,1-.618,0Z" transform="translate(-329.976 -430.626)" fill="#f6f7f9"/>
    <path id="Tracé_10094" data-name="Tracé 10094" d="M456.849,592.267a7.042,7.042,0,1,1-7.042,7.042,7.042,7.042,0,0,1,7.042-7.042m0-.927a7.969,7.969,0,1,0,7.969,7.969A7.969,7.969,0,0,0,456.849,591.34Z" transform="translate(-320.889 -421.833)" fill="#f6f7f9"/>
  </g>
  <text id="Appuyez_sur_Commencer_pour_découvrir_comment_Edu_Connect_peut_améliorer_votre_enseignement." data-name="Appuyez sur &quot;Commencer&quot; pour découvrir comment Edu Connect peut améliorer votre enseignement." transform="translate(8.646 327.554)" fill="#2e3192" font-size="14" font-family="Montserrat-Medium, Montserrat" font-weight="500" letter-spacing="-0.01em"><tspan x="27" y="14">Appuyez sur &quot;Commencer&quot; pour découvrir </tspan><tspan x="25" y="34">comment Edu Connect peut améliorer votre </tspan><tspan x="112.115" y="54">enseignement.</tspan></text>
  <text id="Prêt_à_Commencer_" data-name="Prêt à Commencer ?" transform="translate(185 296.287)" fill="#2e3192" font-size="20" font-family="Montserrat-Bold, Montserrat" font-weight="700" letter-spacing="-0.016em"><tspan x="-104.388" y="0">Prêt à Commencer ?</tspan></text>
</svg>
