<?xml version="1.0" encoding="utf-8"?>
<!-- Generator: Adobe Illustrator 27.5.0, SVG Export Plug-In . SVG Version: 6.00 Build 0)  -->
<svg version="1.1" id="Слой_1" xmlns="http://www.w3.org/2000/svg" xmlns:xlink="http://www.w3.org/1999/xlink" x="0px" y="0px"
	 viewBox="0 0 3005.818 2000" style="enable-background:new 0 0 3005.818 2000;" xml:space="preserve">
<g>
	<rect style="fill:#FAFAFA;" width="3005.818" height="2000"/>
	<g>
		<g>
			<g>
				<g>
					<g>
						<path style="fill:#BBD070;" d="M165.622,640.729c0,0,169.451-72.822,234.897,25.875s-26.238,92.552-26.238,92.552
							s-5.093,45.631-91.645-62.362C241.841,645.892,165.622,640.729,165.622,640.729z"/>
					</g>
				</g>
			</g>
			<g>
				<g>
					<g>
						<path style="fill:#97A43C;" d="M136.067,359.382c0,0,150.421-46.652,249.456,144.143
							c99.035,190.795,188.071,205.877,188.071,205.877S233.379,770.448,136.067,359.382z"/>
					</g>
				</g>
			</g>
			<g>
				<g>
					<g>
						<path style="fill:#48753A;" d="M511.044,720.415c-13.172,63.433-158.367-58.885-172.666-168.576
							c-14.298-109.69,14.174-190.173-14.688-260.536C323.69,291.303,575.908,408.052,511.044,720.415z"/>
					</g>
				</g>
			</g>
		</g>
		<g>
			<path style="fill:#EBEBEB;" d="M550.326,402.666c-5.985,0-11.711,0.881-16.985,2.495c-6.955-16.872-24.233-28.822-44.454-28.822
				c-22.473,0-41.318,14.766-46.38,34.648c-3.883-1.467-8.112-2.278-12.547-2.278c-18.707,0-33.875,14.415-33.875,32.199h49.561
				h18.189h38.766h29.532h65.915C598.048,419.789,576.683,402.666,550.326,402.666z"/>
		</g>
		<g>
			<path style="fill:#EBEBEB;" d="M251.072,529.871c-4.563,0-8.93,0.673-12.951,1.903c-5.304-12.866-18.479-21.977-33.896-21.977
				c-17.136,0-31.506,11.26-35.365,26.419c-2.96-1.119-6.186-1.737-9.566-1.737c-14.265,0-25.83,10.992-25.83,24.552h37.79h13.869
				h29.559h22.519h50.261C287.46,542.928,271.169,529.871,251.072,529.871z"/>
		</g>
	</g>
	<path style="fill:#005CA6;" d="M2185.727,1715.115H359.723c-46.275,0-83.789-37.514-83.789-83.789V615.663
		c0-46.275,37.514-83.789,83.789-83.789h1826.004c46.275,0,83.789,37.514,83.789,83.789v1015.663
		C2269.516,1677.602,2232.002,1715.115,2185.727,1715.115z"/>
	<g>
		<linearGradient id="SVGID_1_" gradientUnits="userSpaceOnUse" x1="477.3408" y1="218.4461" x2="715.2979" y2="218.4461">
			<stop  offset="0" style="stop-color:#FF9F55"/>
			<stop  offset="1" style="stop-color:#FFD255"/>
		</linearGradient>
		<path style="fill:url(#SVGID_1_);" d="M695.656,192.71c-2.415-9.35-6.12-18.178-10.905-26.294l11.103-16.698l-15.403-15.403
			l-15.403-15.403l-16.697,11.103c-8.116-4.786-16.945-8.491-26.294-10.906l-3.953-19.641h-21.783h-21.783l-3.953,19.641
			c-9.349,2.415-18.178,6.121-26.294,10.906l-16.697-11.103l-15.403,15.403l-15.403,15.403l11.104,16.698
			c-4.786,8.116-8.491,16.944-10.906,26.294l-19.642,3.953v21.783v21.783l19.642,3.953c2.415,9.349,6.12,18.178,10.906,26.294
			l-11.104,16.697l15.403,15.403l15.403,15.403l16.697-11.103c8.116,4.786,16.945,8.491,26.294,10.906l3.953,19.642h21.783h21.783
			l3.953-19.642c9.349-2.415,18.178-6.121,26.294-10.906l16.697,11.103l15.403-15.403l15.403-15.403l-11.103-16.697
			c4.785-8.116,8.49-16.945,10.905-26.294l19.642-3.953v-21.783v-21.783L695.656,192.71z M596.319,294.775
			c-42.155,0-76.329-34.173-76.329-76.329c0-42.155,34.174-76.329,76.329-76.329c42.155,0,76.329,34.174,76.329,76.329
			C672.648,260.602,638.475,294.775,596.319,294.775z"/>
	</g>
	<g>
		
			<linearGradient id="SVGID_00000024686182069187047790000009911498869575917214_" gradientUnits="userSpaceOnUse" x1="640.0928" y1="379.3553" x2="749.1826" y2="379.3553">
			<stop  offset="0" style="stop-color:#FF9F55"/>
			<stop  offset="1" style="stop-color:#FFD255"/>
		</linearGradient>
		<path style="fill:url(#SVGID_00000024686182069187047790000009911498869575917214_);" d="M740.178,367.557
			c-1.106-4.286-2.806-8.333-4.999-12.055l5.09-7.655l-7.062-7.061l-7.061-7.061l-7.655,5.09c-3.721-2.194-7.767-3.893-12.055-5
			l-1.811-9.004h-9.986h-9.986l-1.813,9.004c-4.286,1.107-8.333,2.806-12.055,5l-7.654-5.09l-7.061,7.061l-7.062,7.061l5.09,7.655
			c-2.194,3.721-3.893,7.768-5,12.055l-9.004,1.813v9.986v9.986l9.004,1.812c1.107,4.286,2.806,8.333,5,12.054l-5.09,7.655
			l7.062,7.061l7.061,7.061l7.654-5.09c3.722,2.194,7.768,3.893,12.055,5l1.813,9.004h9.986h9.986l1.811-9.004
			c4.287-1.107,8.334-2.806,12.055-5l7.655,5.09l7.061-7.061l7.062-7.061l-5.09-7.655c2.193-3.721,3.893-7.768,4.999-12.054
			l9.005-1.812v-9.986v-9.986L740.178,367.557z M694.638,414.348c-19.326,0-34.993-15.666-34.993-34.992
			c0-19.326,15.667-34.993,34.993-34.993c19.325,0,34.992,15.667,34.992,34.993C729.63,398.682,713.963,414.348,694.638,414.348z"/>
	</g>
	<g>
		<g>
			<g>
				<path style="fill:#FFD179;" d="M199.442,934.864L170.68,909.79c-2.358-2.057-2.604-5.636-0.548-7.994
					c2.057-2.358,5.635-2.602,7.994-0.548l20.339,17.733l29.005-32.352c2.089-2.33,5.671-2.525,8.001-0.437
					c2.329,2.089,2.524,5.67,0.436,8L199.442,934.864z"/>
			</g>
		</g>
	</g>
	<polygon style="fill:#FFDC7D;" points="1513.09,458.215 1550.326,458.215 1538.929,434.576 1501.693,434.576 	"/>
	<polygon style="fill:#FFDC7D;" points="1495.667,458.215 1504.539,458.215 1493.143,434.576 1484.27,434.576 	"/>
	<polygon style="fill:#FFDC7D;" points="1367.02,430.063 1517.794,430.063 1512.791,418.243 1362.016,418.243 	"/>
	<polygon style="fill:#FFD179;" points="152.279,731.076 200.813,731.076 185.958,700.266 137.425,700.266 	"/>
	<polygon style="fill:#FFD179;" points="129.57,731.076 141.135,731.076 126.279,700.266 114.715,700.266 	"/>
	<rect x="613.262" y="880.134" style="fill:#4BA2F4;" width="245.979" height="245.98"/>
	<rect x="348.589" y="615.284" style="fill:#F0F0F0;" width="245.979" height="245.979"/>
	<rect x="1029.277" y="878.967" style="fill:#F0F0F0;" width="245.979" height="245.979"/>
	<rect x="1293.95" y="878.967" style="fill:#4BA2F4;" width="245.979" height="245.979"/>
	<rect x="613.262" y="1143.64" style="fill:#F0F0F0;" width="245.979" height="245.979"/>
	<rect x="613.262" y="1408.324" style="fill:#FFDF69;" width="245.979" height="245.979"/>
	<rect x="1029.277" y="1408.324" style="fill:#F0F0F0;" width="245.979" height="245.979"/>
	<rect x="348.589" y="1144.229" style="fill:#F0F0F0;" width="245.979" height="245.979"/>
	<g>
		<path style="fill:#FFDF69;" d="M1539.918,1408.324c0,0-0.173,113.858-26.861,210.375l-56.886,35.604h-200.567
			c38.105-101.405,38.335-245.979,38.335-245.979H1539.918z"/>
		<polygon style="fill:#DEBA35;" points="1456.171,1654.303 1456.171,1617.875 1513.057,1617.875 		"/>
	</g>
	<g>
		<path style="fill:#4BA2F4;" d="M1275.244,1143.64c0,0-0.172,113.858-26.86,210.375l-56.886,35.604H990.93
			c38.106-101.405,38.336-245.979,38.336-245.979H1275.244z"/>
		<polygon style="fill:#375EAB;" points="1191.498,1389.618 1191.498,1353.19 1248.384,1353.19 		"/>
	</g>
	<rect x="1293.95" y="615.461" style="fill:#F0F0F0;" width="245.979" height="245.979"/>
	<g>
		<path style="fill:#FFDF69;" d="M1275.244,615.461c0,0-0.172,113.858-26.86,210.375l-56.886,35.604H990.93
			c38.106-101.406,38.336-245.979,38.336-245.979H1275.244z"/>
		<polygon style="fill:#DEBA35;" points="1191.498,861.44 1191.498,825.011 1248.384,825.011 		"/>
	</g>
	<g>
		<g>
			<path style="fill:#F0F0F0;" d="M594.557,1408.324c0,0-0.173,113.858-26.861,210.375l-56.886,35.604H310.242
				c38.105-101.405,38.335-245.979,38.335-245.979H594.557z"/>
			<polygon style="fill:#C9C9C9;" points="510.81,1654.303 510.81,1617.875 567.695,1617.875 			"/>
		</g>
	</g>
	<rect x="1694.563" y="880.134" style="fill:#FFDF69;" width="245.979" height="245.98"/>
	<rect x="1694.563" y="615.284" style="fill:#F0F0F0;" width="245.979" height="245.979"/>
	<rect x="1959.235" y="615.284" style="fill:#F0F0F0;" width="245.979" height="245.979"/>
	<rect x="1959.235" y="1143.64" style="fill:#F0F0F0;" width="245.979" height="245.979"/>
	<rect x="1959.235" y="1408.324" style="fill:#FFDF69;" width="245.979" height="245.979"/>
	<rect x="1694.563" y="1144.229" style="fill:#F0F0F0;" width="245.979" height="245.979"/>
	<g>
		<g>
			<path style="fill:#F0F0F0;" d="M1940.529,1408.324c0,0-0.172,113.858-26.86,210.375l-56.886,35.604h-200.568
				c38.106-101.405,38.336-245.979,38.336-245.979H1940.529z"/>
			<polygon style="fill:#C9C9C9;" points="1856.783,1654.303 1856.783,1617.875 1913.669,1617.875 			"/>
		</g>
	</g>
	<g>
		<path style="fill:#F0F0F0;" d="M1539.918,1143.64c0,0-0.173,113.858-26.861,210.375l-56.886,35.604h-200.567
			c38.105-101.405,38.335-245.979,38.335-245.979H1539.918z"/>
		<polygon style="fill:#C9C9C9;" points="1456.171,1389.618 1456.171,1353.19 1513.057,1353.19 		"/>
	</g>
	
		<rect x="2367.33" y="1162.795" transform="matrix(-1 -1.224647e-16 1.224647e-16 -1 4845.5098 2333.3604)" style="fill:#FFD887;" width="110.85" height="7.771"/>
	
		<rect x="2367.33" y="1177.439" transform="matrix(-1 -1.224647e-16 1.224647e-16 -1 4845.5098 2387.5479)" style="fill:#FFD887;" width="110.85" height="32.669"/>
	
		<rect x="982.507" y="451.605" transform="matrix(-1 -1.224647e-16 1.224647e-16 -1 2025.0518 907.6924)" style="fill:#FFDC7D;" width="60.038" height="4.481"/>
	
		<rect x="982.507" y="458.048" transform="matrix(-1 -1.224647e-16 1.224647e-16 -1 2025.0518 928.2339)" style="fill:#FFDC7D;" width="60.038" height="12.138"/>
	
		<rect x="2496.384" y="1120.914" transform="matrix(-1 -1.224647e-16 1.224647e-16 -1 4997.6494 2333.3604)" style="fill:#FFD989;" width="4.882" height="91.532"/>
	
		<linearGradient id="SVGID_00000074430364847454697710000012727520912993528227_" gradientUnits="userSpaceOnUse" x1="930.5186" y1="1117.0869" x2="945.9902" y2="1117.0869">
		<stop  offset="0" style="stop-color:#FF9F55"/>
		<stop  offset="1" style="stop-color:#FFD255"/>
	</linearGradient>
	
		<rect x="930.519" y="481.477" style="fill:url(#SVGID_00000074430364847454697710000012727520912993528227_);" width="15.472" height="1271.221"/>
	
		<linearGradient id="SVGID_00000069392710954159835520000004633853863552128159_" gradientUnits="userSpaceOnUse" x1="1609.5098" y1="1117.0869" x2="1624.9805" y2="1117.0869">
		<stop  offset="0" style="stop-color:#FF9F55"/>
		<stop  offset="1" style="stop-color:#FFD255"/>
	</linearGradient>
	
		<rect x="1609.51" y="481.477" style="fill:url(#SVGID_00000069392710954159835520000004633853863552128159_);" width="15.471" height="1271.221"/>
	
		<linearGradient id="SVGID_00000032639068009603652450000010156076444837980332_" gradientUnits="userSpaceOnUse" x1="1038.8604" y1="532.0122" x2="1491.998" y2="532.0122">
		<stop  offset="0" style="stop-color:#FF9F55"/>
		<stop  offset="1" style="stop-color:#FFD255"/>
	</linearGradient>
	
		<rect x="1038.86" y="507.968" style="fill:url(#SVGID_00000032639068009603652450000010156076444837980332_);" width="453.138" height="48.089"/>
	<g>
		<g>
			<g>
				<g>
					<g>
						<g>
							<path style="fill:#FFDC7D;" d="M1758.35,352.776l-38.81-16.866c-3.183-1.383-4.642-5.085-3.259-8.267
								c1.385-3.182,5.085-4.64,8.268-3.258l27.444,11.927l19.817-43.921c1.427-3.163,5.148-4.57,8.311-3.143
								c3.163,1.427,4.57,5.148,3.143,8.311L1758.35,352.776z"/>
						</g>
					</g>
				</g>
			</g>
		</g>
		<g>
			<path style="fill:#FFDC7D;" d="M1802.473,389.812c-35.787,25.147-85.36,16.49-110.508-19.297
				c-25.146-35.787-16.49-85.36,19.297-110.508c35.787-25.147,85.36-16.491,110.508,19.296
				C1846.916,315.091,1838.26,364.664,1802.473,389.812z M1717.776,269.279c-30.675,21.554-38.095,64.046-16.54,94.721
				s64.047,38.094,94.722,16.54c30.675-21.555,38.095-64.047,16.54-94.722S1748.451,247.724,1717.776,269.279z"/>
		</g>
	</g>
	<g>
		<path style="fill:#CFBFB8;" d="M2570.234,1720.154c0,0,5.309-8.047,6.176-12.771c0.866-4.727,3.529-7.419,3.529-7.419
			s20.119-2.927,27.852-10.104c7.731-7.177,24.11-26.727,31.845-20.869c7.733,5.858-5.604,30.512-13.497,37.961
			c-7.893,7.448-18.577,20.503-28.285,19.535C2588.146,1725.52,2574.928,1720.91,2570.234,1720.154z"/>
		<path style="fill:#25354D;" d="M2570.234,1718.92l9.705-18.956c0,0-46.455-8.513-60.044-16.695
			c-3.406-2.053-6.794-4.108-9.948-6.056c-7.176-4.43-13.125-8.262-15.225-10.045c-6.707-5.704-33.598-24.755-40.864-31.752
			c-7.259-6.994-15.838-2.73-27.161-2.617c-11.326,0.123-52.344,11.482-64.612,13.111c-12.274,1.618-56.585,9.858-56.585,9.858
			C2313.301,1677.086,2570.234,1718.92,2570.234,1718.92z"/>
		<path style="fill:#2F4563;" d="M2302.912,1655.077c0,0,25,3.603,31.428,4.093c6.58,0.501,43.808,3.495,61.762,5.22
			c17.953,1.725,53.217,0.694,60.214,3.771c6.998,3.075,47.433,16.777,60.669,21.053c13.235,4.275,99.23,20.018,99.23,20.018
			s1.473,11.652-6.14,20.596c0,0-37.904-3.385-57.907-0.445c-20.004,2.941-54.944-1.538-76.15-11.158
			c-21.206-9.619-54.821-0.843-73.607,5.759c-18.786,6.601-90.608,11.902-99.572,9.89s-26.838-10.639-39.788-24.723
			C2250.1,1695.065,2302.912,1655.077,2302.912,1655.077z"/>
		<path style="fill:#EDDAD3;" d="M2610.075,1729.826c0,0,3.205-9.093,2.903-13.887c-0.302-4.795,1.166-7.089,1.166-7.089
			s19.278-8.67,25.045-17.504c5.766-8.834,16.931-31.766,25.852-27.952c8.922,3.814,1.941,30.961-3.915,40.098
			s-9.478,33.45-19.131,34.859C2632.342,1739.762,2614.813,1729.424,2610.075,1729.826z"/>
		<path style="fill:#2F4563;" d="M2246.709,1639.073c0,0-31.598,71.704,17.451,89.089c39.12,13.867,111.24,1.102,111.24,1.102
			l-44.371-69.916L2246.709,1639.073z"/>
		<path style="fill:#323657;" d="M2328.039,1368.49c-12.031,2.677-4.859,32.884-12.922,75.117
			c-8.064,42.234-33.518,48.836-33.518,48.836s11.304-18.729,10.066-38.309c-0.967-15.3-19.5-57.041-1.18-84.325
			c14.154-21.08,39.096-1.942,39.096-1.942L2328.039,1368.49z"/>
		<path style="fill:#EEA886;" d="M2309.937,1456.42l23.394,24.076c0.216-4.42,1.84-9.797,3.506-14.282
			c0.817-2.194,1.65-4.181,2.32-5.716c0.888-2.02,1.513-3.275,1.513-3.275l-20.868-22.068L2309.937,1456.42z"/>
		<path style="fill:#FFB555;" d="M2337.786,1478.132c0,0,0.905,11.579,7.208,22.26c6.303,10.682,16.724,28.411,15.247,39.938
			c-1.476,11.527-6.38,15.715-10.81,19.865c-4.431,4.15-16.592,34.105-18.068,45.633s-2.408,35.48,0.396,53.093
			c0,0-82.035,9.519-90.288-4.813c0,0,10.181-46.09,14.984-57.64c4.803-11.55,14.855-80.647,19.167-92.396
			c4.313-11.749,14.479-23.108,20.697-31.257c5.554-7.279,15.671-20.822,15.671-20.822L2337.786,1478.132z"/>
		<path style="fill:#EEA886;" d="M2348.039,1370.945c10.826,0.722,34.081,8.896,34.465,37.855c0,0-1.75,7.594-4.315,13.422
			c-2.564,5.827,0.792,24.273-0.723,24.989s-7.483,1.164-7.483,1.164s-8.53,18.743-15.346,17.786
			c-6.815-0.956-32.07-9.286-41.459-34.914C2303.791,1405.62,2304.319,1368.026,2348.039,1370.945z"/>
		<path style="fill:#323657;" d="M2382.504,1408.801c0,0-18.854,9.896-36.479,10.299s-32.069,28.656-32.069,28.656
			s-21.34-47.875,3.099-72.166C2341.419,1351.373,2390.117,1376.002,2382.504,1408.801z"/>
		<path style="fill:#EEA886;" d="M2341.904,1418.929c0.293-3.37-2.861-8.841-8.894-4.888s-0.477,20.775,4.213,19.731
			C2341.914,1432.729,2341.602,1422.41,2341.904,1418.929z"/>
		<path style="fill:#A77860;" d="M2322.428,1447.112c0.328,0.545,8.911,14.604,14.408,19.102c0.817-2.194,1.65-4.181,2.32-5.716
			C2339.156,1460.498,2326.897,1453.191,2322.428,1447.112z"/>
		
			<rect x="2382.433" y="1661.494" transform="matrix(0.9826 0.1855 -0.1855 0.9826 351.5307 -423.8581)" style="fill:#C4C4C4;" width="116.666" height="10.153"/>
		
			<rect x="2467.656" y="1626.332" transform="matrix(0.5655 -0.8247 0.8247 0.5655 -247.9889 2792.0823)" style="fill:#C4C4C4;" width="116.666" height="10.154"/>
		<path style="fill:#EEA886;" d="M2475.23,1667.911c0.568-2.548,0-6.8-8.023-11.098c-8.022-4.298-25.353-14.075-31.445-14.308
			c-6.093-0.231-18.096,0.729-20.559,0.716c-2.463-0.012,3.861,14.499,3.861,14.499L2475.23,1667.911z"/>
		<path style="fill:#EEA886;" d="M2418.02,1644.333c0,0-33.445-13.163-38.877-15.786c-5.431-2.621-30.758-11.139-33.006-12.263
			c-2.247-1.123-12.833-64.356-13.77-80.274s-1.873-49.627-19.852-48.129c-17.978,1.498-22.285,13.297-20.037,36.519
			c2.247,23.222,15.543,106.37,21.161,109.179s70.112,17.234,104.119,24.018C2450.302,1664.088,2418.02,1644.333,2418.02,1644.333z"
			/>
		<path style="fill:#EDDAD3;" d="M2334.205,1540.961c0,0-25.907,4.834-40.843,6.335c0,0-18.586-52.946,6.714-61.403
			C2330.07,1475.865,2336.771,1516.897,2334.205,1540.961z"/>
	</g>
	<g>
		<g>
			<g>
				<g>
					<path style="fill:#EEA886;" d="M1898.492,1309.072c0,0-7.658-3.044-8.207-7.877c-0.467-4.109-3.878-9.204-4.926-10.775
						c-1.4-2.101-3.491-10.123-5.945-8.413s2.849,13.371,3.507,16.027c0.657,2.656-9.796-3.005-12.41-2.493
						c-2.615,0.512-9.736,18.844-2.173,21.875c7.563,3.032,17.31,1.105,18.552,1.912c1.241,0.806,5.43,2.43,5.43,2.43
						L1898.492,1309.072z"/>
				</g>
			</g>
		</g>
		<g>
			<path style="fill:#202338;" d="M2097.381,1798.597c0,0,5.323,9.842,8.801,13.748s16.794,10.889,16.866,22.489
				c0.078,12.581-22.448,9.09-31.258,8.63c-8.811-0.46-9.477-7.181-13.187-14.304c-3.709-7.123-7.447-5.917-8.143-11.661
				c-0.695-5.745,3.592-18.902,3.592-18.902H2097.381z"/>
		</g>
		<g>
			<g>
				<path style="fill:#202338;" d="M1963.273,1797.45c0,0-10.855,12.013-21.877,14.529c-11.021,2.517-18.729,5.728-18.813,12.62
					c-0.083,6.894,31.717,11.437,44.328,4.486c18.823-10.371,20.736-7.244,22.824-12.429c2.087-5.185-2.508-19.048-2.371-20.696
					C1987.533,1793.924,1963.273,1797.45,1963.273,1797.45z"/>
			</g>
		</g>
		<g>
			<g>
				<path style="fill:#81807E;" d="M1964.494,1791.703c0,0-1.434,5.629-1.221,5.747c0.214,0.119,24.836,3.026,24.092-1.489
					c-0.604-3.662-1.467-7.643-1.467-7.643L1964.494,1791.703z"/>
			</g>
		</g>
		<g>
			<g>
				<path style="fill:#81807E;" d="M2074.357,1794.798c0,0-1.03,5.369-0.831,5.499c0.2,0.129,24.969,4.513,24.828,0.055
					c-0.11-3.541-2.284-7.668-2.284-7.668L2074.357,1794.798z"/>
			</g>
		</g>
		<g>
			<g>
				<path style="fill:#292C47;" d="M1986.883,1454.816c0,0-8.956,86.189-13.613,115.694c-5.444,34.499-7.291,63.003-8.81,80.858
					c-1.909,22.459-2.278,132.934-3.615,139.5c-1.337,6.567,29.661,1.814,29.661,1.814s15.249-144.35,20.938-168.268
					c5.297-22.271,24.956-118.154,29.789-112.072c4.834,6.081,10.826,111.894,14.406,129.459
					c3.579,17.564,14.466,155.076,14.466,155.076s24.67,4.869,31.232-0.637c0,0,2.987-118.507,0.706-151.438
					c-0.869-12.551,14.837-150.477-5.302-206.003C2086.098,1409.457,1986.883,1454.816,1986.883,1454.816z"/>
			</g>
		</g>
		<g>
			<g>
				<path style="fill:#DBD8E3;" d="M2152.717,1360.413c5.198,14.212-42.532,49.831-36.599,50.918
					c5.925,1.088,5.677,12.349,5.677,12.349s44.957-39.149,44.031-50.685c-0.513-6.401-35.706-99.506-41.083-103.354
					c-3.668-2.634-26.684-11.858-38.623-16.39c-5.521-2.104-9.728-3.569-10.591-3.623c-2.733-0.171-36.403,3.057-36.403,3.057
					s-4.827,1.654-9.764,3.92c-8.424,3.866-21.55,9.907-30.972,14.394c-3.049,1.448-6.852,3.408-10.016,5.08
					c0.387,11.445,1.061,23.708,2.031,36.826c0,0,1.754,28.652,1.915,57.584c1.511,6.554,1.25,21.775,1.25,21.775
					c0.413,14.438-1.196,29.264-1.609,37.545c-0.665,13.027-2.454,31.571-2.454,31.571l16.372,6.685l71.729-0.67l22.458-6.015
					c0,0-1.333-57.681-1.001-74.448c0.314-16.156,3.713-58.112,4.378-60.54C2103.444,1326.392,2127.494,1291.462,2152.717,1360.413z
					"/>
			</g>
		</g>
		<g>
			<path style="fill:#1D2033;" d="M1991.669,1455.258c0,0,49.273,4.195,92.429,0v14.16c0,0-64.266,6.137-94.59-2.701
				L1991.669,1455.258z"/>
		</g>
		<g>
			<g>
				<path style="fill:#323657;" d="M1987.588,1275.866c0.378,11.634,0.942,24.113,1.932,37.474c0,0,0.933,32.627,2.811,63.576
					c0.639,4.433,0.963,8.964,0.604,13.604c-0.469,6.05-1.125,12.658-1.916,19.555c-0.009,0.09-0.018,0.18-0.027,0.26
					c-0.188,1.637-0.386,3.282-0.584,4.945c0,0.027-0.009,0.045-0.009,0.072c-4.189,34.479-11.283,74.037-14.987,86.004
					c-0.782,2.498,1.915,4.81,3.839,6.59l13.478,8.496c0,0,5.556-51.147,7.398-68.509c1.78-16.759,7.382-39.226,9.836-61.117v-0.009
					c3.111-27.772,7.394-54.983,9.704-71.148c6.015-42.085,14.028-60.916,14.028-60.916
					C2029.864,1255.885,1987.588,1275.866,1987.588,1275.866z"/>
			</g>
		</g>
		<g>
			<g>
				<path style="fill:#323657;" d="M2148.023,1356.727c5.844,12.811-37.037,51.953-36.535,53.28
					c2.918,7.703,14.078,21.801,14.078,21.801s66.403-71.325,65.528-80.109c-0.637-6.394-56.307-77.481-61.681-81.333
					c-3.103-2.228-26.102-10.379-37.386-14.826c-2.063-0.816-8.785-3.348-10.633-4.048c-2.395,2.663-19.214,20.757-25.04,89.554
					c-0.981,11.594,2.119,36.148,4.19,56.189c2.21,21.381,4.657,38.068,6.45,55.948c3.534,35.229,6.006,63.259,6.006,63.259
					l35.06-15.609c5.673-2.839,15.485-10.246,13.353-16.22c-8.105-22.701-20.268-65.726-20.278-85.646
					c0,0,9.265-66.546,12.364-77.268C2113.5,1321.699,2141.487,1342.396,2148.023,1356.727z"/>
			</g>
		</g>
		<g>
			<g>
				<path style="fill:#EEA987;" d="M2072.42,1253.209c0,0,0.23-11.56,4.686-34.943c1.191-6.26-36.341,16.471-36.341,16.471
					s0.115,2.192,0.191,5.154c0.04,1.563,0.065,3.338,0.055,5.118c-0.005,0.628-0.01,1.252-0.024,1.87
					c-0.035,1.654-0.111,3.238-0.252,4.585c-0.141,1.388-0.96,3.837-1.252,4.511
					C2037.934,1259.544,2059.779,1262.254,2072.42,1253.209z"/>
			</g>
		</g>
		<g>
			<path style="fill:#D44040;" d="M2048.993,1265.319l-6.222,8.358c0,0,3.645,4.882,10.118,1.278L2048.993,1265.319z"/>
		</g>
		<g>
			<path style="fill:#D44040;" d="M2044.436,1274.018c0,0-23.596,90.848-18.732,161.563l7.939,13.991l7.431-14.656
				c0,0,2.036-126.491,8.505-161.12L2044.436,1274.018z"/>
		</g>
		<g>
			<path style="fill:#EEA987;" d="M2042.332,1257.526l6.661,7.793c0,0,10.69-2.071,13.83-7.655
				C2065.962,1252.08,2042.332,1257.526,2042.332,1257.526z"/>
		</g>
		<g>
			<path style="fill:#C4C1CC;" d="M2040.804,1250.706c0,0,0.773,5.94,8.189,14.613l-8.095,10.875l-4.381-22.56L2040.804,1250.706z"
				/>
		</g>
		<g>
			<path style="fill:#C4C1CC;" d="M2073.035,1245.054c0,0-13.232,15.992-24.042,20.266l5.028,12.435l25.158-27.048
				L2073.035,1245.054z"/>
		</g>
		<g>
			<g>
				<path style="fill:#323657;" d="M1878.605,1322.047c0,0,57.028,61.956,70.486,58.645c6.221-1.529,15.645-12.27,23.431-22.365
					c2.567-3.325,5.085-6.814,7.479-10.269c0.007-0.007,0.007-0.015,0.007-0.015c9.554-13.793,17.04-27.015,17.04-27.015
					s28.238-33.093,5.578-47.845c0,0-9.55-0.963-14.982,3.044c-5.015,3.7-17.217,26.996-19.198,31.314
					c-1.979,4.313-17.39,34.761-18.827,35.662s-16.571-8.183-24.661-13.628c-13.072-8.799-29.496-24.133-29.496-24.133
					L1878.605,1322.047z"/>
			</g>
		</g>
		<g>
			
				<rect x="2028.002" y="1456.012" transform="matrix(-1 -1.224647e-16 1.224647e-16 -1 4079.0488 2929.5049)" style="fill:#3A4066;" width="23.045" height="17.482"/>
		</g>
		<g>
			<path style="fill:#A77860;" d="M2041.011,1245.009c-0.005,0.628-0.01,1.252-0.024,1.87c21.469-7.205,25.626-18.05,25.626-18.05
				c-6.696,4.736-25.656,11.062-25.656,11.062C2040.996,1241.453,2041.021,1243.229,2041.011,1245.009z"/>
		</g>
		<g>
			<path style="fill:#EEA886;" d="M2119.238,1409.77c0,0-2.032,1.703-4.185,1.685c-3.717-0.031-7.948-4.072-11.833-0.402
				c-3.885,3.669,4.293,19.276,7.239,21.105c2.945,1.829,9.641-1.458,16.806-10.117
				C2134.431,1413.38,2119.238,1409.77,2119.238,1409.77z"/>
		</g>
		<g>
			<path style="fill:#EEA886;" d="M2104.707,1410.007c0,0-7.518,2.583-15.53,6.492c-7.03,3.431-15.277,8.668-14.437,10.448
				c1.277,2.702,7.548-2.366,14.746-5.294c6.627-2.695,5.775-1.04,5.775-1.04s0.217-0.485-6.432,3.873
				c-7.146,4.686-14.628,10.018-13.967,11.488c0.82,1.823,1.076,1.981,3.949,0.71c-1.493,1.089-1.406,1.658-1.01,2.332
				c2.053,3.487,13.631-1.741,18.229-3.819c-3.521,1.618-5.932,3.188-3.297,4.509c3.014,1.513,19.048-6.628,25.072-8.985
				C2124.378,1428.149,2104.707,1410.007,2104.707,1410.007z"/>
		</g>
		<g>
			<path style="fill:#323657;" d="M2111.488,1410.007c0,0,1.635,9.566,14.078,21.801c0,0,28.521-31.465,33.609-37.355
				l-22.316-12.948L2111.488,1410.007z"/>
		</g>
		<g>
			<g>
				<path style="fill:#EEA886;" d="M2031.709,1174.898c0,0-11.571,12.953-8.148,16.215c2.828,2.694-7.789,15.583-9.292,17.744
					s4.966,5.537,6.062,7.42c1.095,1.884,0.92,21.8,6.451,23.723c5.532,1.923,33.195-0.859,41.877-6.43
					c8.682-5.569,22.189-36.868,20.838-51.754C2088.145,1166.93,2052.067,1152.305,2031.709,1174.898z"/>
			</g>
		</g>
		<g>
			<g>
				<path style="fill:#323657;" d="M2029.339,1177.738c0,0-4.352-18.014,13.364-26.374c17.715-8.36,40.143,19.095,43.042,20.63
					c2.899,1.536,20.147,6.928,3.94,35.602c-13.917,24.621-15.245,25.479-15.245,25.479s-2.016-16.671-4.673-19.772
					c-4.151-4.845-15.369-6.6-15.369-6.6s8.572-12.674,0.845-16.604C2047.517,1186.17,2038.369,1176.64,2029.339,1177.738z"/>
			</g>
		</g>
		<g>
			<g>
				<path style="fill:#EEA886;" d="M2065.036,1200.814c1.179-1.737,5.478-9.39,11.372-2.885c5.894,6.504-9.237,19.247-10.514,19.153
					C2064.619,1216.99,2055.112,1215.438,2065.036,1200.814z"/>
			</g>
		</g>
	</g>
	<g>
		<g>
			<g>
				<g>
					<path style="fill:#666FB3;" d="M1845.425,1373.357c0,0-3.448,13.541-3.917,15.58c-0.468,2.04-21.701-3.574-21.701-3.574
						l0.02-16.563C1819.826,1368.801,1842.936,1371.125,1845.425,1373.357z"/>
				</g>
			</g>
		</g>
		<g>
			<g>
				<g>
					<path style="fill:#2D314F;" d="M1841.927,1387.214c0,0,5.944,9.026,12.17,13.354s30.25,9.923,33.758,14.085
						c2.532,3.004,6.056,14.377-32.495,9.186c-27.388-3.688-40.899-2.757-43.362-7.53s7.812-32.425,7.812-32.425
						S1825.666,1387.07,1841.927,1387.214z"/>
				</g>
			</g>
		</g>
		<g>
			<g>
				<g>
					
						<rect x="1413.74" y="1430.709" transform="matrix(0.0968 -0.9953 0.9953 0.0968 266.5659 3164.9163)" style="fill:#B8B8B8;" width="926.818" height="9.743"/>
				</g>
			</g>
		</g>
		<g>
			<g>
				<g>
					
						<rect x="1256.878" y="1415.485" transform="matrix(0.0968 -0.9953 0.9953 0.0968 140.0431 2995.042)" style="fill:#B8B8B8;" width="926.818" height="9.744"/>
				</g>
			</g>
		</g>
		<g>
			<g>
				<g>
					<g>
						
							<rect x="1836.941" y="905.988" transform="matrix(0.0966 -0.9953 0.9953 0.0966 683.6849 2722.8384)" style="fill:#B8B8B8;" width="9.744" height="157.599"/>
					</g>
				</g>
			</g>
			<g>
				<g>
					<g>
						
							<rect x="1829.862" y="978.929" transform="matrix(0.0966 -0.9953 0.9953 0.0966 604.6919 2781.6877)" style="fill:#B8B8B8;" width="9.744" height="157.599"/>
					</g>
				</g>
			</g>
			<g>
				<g>
					<g>
						
							<rect x="1822.783" y="1051.871" transform="matrix(0.0966 -0.9953 0.9953 0.0966 525.6968 2840.5361)" style="fill:#B8B8B8;" width="9.744" height="157.598"/>
					</g>
				</g>
			</g>
			<g>
				<g>
					<g>
						
							<rect x="1815.705" y="1124.812" transform="matrix(0.0966 -0.9953 0.9953 0.0966 446.7019 2899.3848)" style="fill:#B8B8B8;" width="9.744" height="157.599"/>
					</g>
				</g>
			</g>
			<g>
				<g>
					<g>
						
							<rect x="1808.626" y="1197.752" transform="matrix(0.0965 -0.9953 0.9953 0.0965 367.8779 2958.3792)" style="fill:#B8B8B8;" width="9.743" height="157.599"/>
					</g>
				</g>
			</g>
			<g>
				<g>
					<g>
						
							<rect x="1801.547" y="1270.694" transform="matrix(0.0966 -0.9953 0.9953 0.0966 288.6945 3017.0645)" style="fill:#B8B8B8;" width="9.743" height="157.598"/>
					</g>
				</g>
			</g>
			<g>
				<g>
					<g>
						
							<rect x="1794.469" y="1343.635" transform="matrix(0.0966 -0.9953 0.9953 0.0966 209.7 3075.9121)" style="fill:#B8B8B8;" width="9.743" height="157.599"/>
					</g>
				</g>
			</g>
			<g>
				<g>
					<g>
						
							<rect x="1787.39" y="1416.576" transform="matrix(0.0966 -0.9953 0.9953 0.0966 130.7048 3134.7595)" style="fill:#B8B8B8;" width="9.743" height="157.599"/>
					</g>
				</g>
			</g>
			<g>
				<g>
					<g>
						
							<rect x="1780.311" y="1489.517" transform="matrix(0.0966 -0.9953 0.9953 0.0966 51.7267 3193.6238)" style="fill:#B8B8B8;" width="9.744" height="157.599"/>
					</g>
				</g>
			</g>
		</g>
		<g>
			<g>
				<g>
					<g>
						
							<rect x="1773.232" y="1562.458" transform="matrix(0.0966 -0.9953 0.9953 0.0966 -27.2664 3252.4744)" style="fill:#B8B8B8;" width="9.744" height="157.599"/>
					</g>
				</g>
			</g>
			<g>
				<g>
					<g>
						
							<rect x="1766.153" y="1635.399" transform="matrix(0.0966 -0.9953 0.9953 0.0966 -106.2612 3311.3223)" style="fill:#B8B8B8;" width="9.744" height="157.599"/>
					</g>
				</g>
			</g>
			<g>
				<g>
					<g>
						
							<rect x="1759.074" y="1708.341" transform="matrix(0.0966 -0.9953 0.9953 0.0966 -185.2723 3370.1506)" style="fill:#B8B8B8;" width="9.743" height="157.599"/>
					</g>
				</g>
			</g>
			<g>
				<g>
					<g>
						
							<rect x="1751.996" y="1781.281" transform="matrix(0.0965 -0.9953 0.9953 0.0965 -264.1236 3429.1821)" style="fill:#B8B8B8;" width="9.743" height="157.599"/>
					</g>
				</g>
			</g>
		</g>
		<g>
			<g>
				<g>
					<path style="fill:#EEA886;" d="M2052.986,845.964c0,0-2.006,2.482-3.412,3.14c0,0-2.65,1.001-4.492,1.826
						c-0.583,0.264-1.086,0.507-1.394,0.698c-1.288,0.796-3.877,2.929-7.508,3.973c-3.626,1.044-20.026,4.778-20.026,4.778
						l-3.814-9.732l-2.734-7.861c0,0,15.182-19.669,18.449-21.033c0.32-0.131,0.641-0.25,0.95-0.337
						c2.879-0.887,5.393-0.336,6.956-0.63c0.574-0.104,6.359-0.756,7.611,0.452c1.739,1.674,2.266,3.54,1.963,5.166
						c0,0,3.262,3.429,3.496,6.606c0,0,3.111,3.066,2.278,7.101C2051.31,840.112,2054.117,843.576,2052.986,845.964z"/>
				</g>
			</g>
		</g>
		<g>
			<g>
				<g>
					<path style="fill:#4BA2F4;" d="M1877.19,973.566c3.789-2.439,8.69-5.742,25.657-14.229
						c31.586-15.804,70.583-44.452,78.001-48.59c11.399-6.362,47.419-50.368,47.419-50.368
						c-1.858-6.629-18.936-19.931-18.936-19.931s-54.604,51.72-66.536,58.086c-10.263,5.473-60.948,11.004-74.911,12.439
						c-2.267,0.234-3.566,0.36-3.566,0.36C1849.736,931.222,1869.047,978.81,1877.19,973.566z"/>
				</g>
			</g>
		</g>
		<g>
			<g>
				<g>
					<path style="fill:#2D314F;" d="M1871.619,1088.225c0,0,15.451,57.377,19.525,77.886c3.549,17.87,10.688,65.467,11.703,76.783
						s-45.611,120.846-50.462,140.631l-42.481-6.82c0,0,44.82-113.999,33.128-139.332c-17.388-37.675-19.653-36.538-33.351-67.575
						c-13.699-31.037-45.057-31.771-53.478-89.357C1756.204,1080.439,1860.217,1069.96,1871.619,1088.225z"/>
				</g>
			</g>
		</g>
		<g>
			<g>
				<g>
					<path style="fill:#EEA886;" d="M1796.079,809.451c0,0,28.208-10.536,41.214,10.936c13.007,21.472,11.754,64.459-2.465,69.745
						c-14.219,5.286-35.577,2.523-42.856-10.913c-7.279-13.436-13.852-32.86-13.536-45.841
						C1778.752,820.397,1788.674,813.198,1796.079,809.451z"/>
				</g>
			</g>
		</g>
		<g>
			<g>
				<g>
					<path style="fill:#EEA886;" d="M1830.093,888.813c0,0-1.14,7.394,0.743,11.036c1.884,3.643-35.479,3.737-35.479,3.737
						s-3.033-19.811-8.783-36.55C1780.824,850.297,1830.093,888.813,1830.093,888.813z"/>
				</g>
			</g>
		</g>
		<g>
			<g>
				<g>
					<path style="fill:#D88A51;" d="M1786.574,867.036c0,0,2.578,4.254,13.104,2.604c10.526-1.65,23.368-15.655,27.763-17.192
						c4.396-1.538,4.438-4.12,4.438-4.12l2.751,4.02l4.669,0.295c0,0-4.259-12.527,2.164-17.637
						c6.424-5.109-6.666-40.548-40.424-28.749c0,0-25.928,7.147-24.985,21.893C1776.996,842.895,1780.772,859.692,1786.574,867.036z
						"/>
				</g>
			</g>
		</g>
		<g>
			<g>
				<g>
					<path style="fill:#EEA886;" d="M1831.182,842.965c-0.591-2.474-6.88-9.542-9.289-1.974c-2.408,7.567,3.639,17.747,7.012,16.876
						C1832.277,856.996,1832.678,849.235,1831.182,842.965z"/>
				</g>
			</g>
		</g>
		<g>
			<g>
				<path style="fill:#4BA2F4;" d="M1723.597,996.66c0.308,3.701,4.533,7.703,7.414,9.682c1.846,1.267,4.056,2.033,6.433,2.115
					l1.675,0.058l0.001-0.003l29.312,0.998c0,0,21.791-70.429-19.082-97.288C1748.083,912.348,1720.759,962.714,1723.597,996.66z"/>
			</g>
		</g>
		<g>
			<g>
				<g>
					<path style="fill:#2D314F;" d="M1811.996,1416.309c2.465,4.773,15.977,3.842,43.365,7.528
						c7.482,1.007,13.381,1.394,18.009,1.331l1.599-16.476c-8.013-2.787-17.328-5.661-20.871-8.126
						c-6.227-4.326-12.17-13.353-12.17-13.353c-16.262-0.143-22.121-3.332-22.121-3.332S1809.534,1411.534,1811.996,1416.309z"/>
				</g>
			</g>
		</g>
		<g>
			<g>
				<path style="fill:#4BA2F4;" d="M1830.115,897.7c0,0-23-5.35-35.965-0.974l-1.958,1.813c0,0-3.94,7.554,10.892,8.203
					C1817.916,907.392,1841.232,908.471,1830.115,897.7z"/>
			</g>
		</g>
		<g>
			<g>
				<g>
					<path style="fill:#666FB3;" d="M1740.228,1436.689c0,0-3.448,13.542-3.916,15.582c-0.469,2.039-21.702-3.576-21.702-3.576
						l0.021-16.563C1714.63,1432.133,1737.739,1434.457,1740.228,1436.689z"/>
				</g>
			</g>
		</g>
		<g>
			<g>
				<g>
					<path style="fill:#2D314F;" d="M1756.204,1080.439c0,0-7.742,31.937-10.034,63.91c-2.119,29.546-5.977,61.954-9.041,92.857
						c-3.417,34.451-13.166,90.143-13.673,108.571c-0.508,18.429-16.021,98.968-16.021,98.968l39.678,4.559
						c0,0,25.778-142.324,31.867-156.873c6.088-14.549,36.281-118.27,37.296-129.908
						C1817.291,1150.884,1756.204,1080.439,1756.204,1080.439z"/>
				</g>
			</g>
		</g>
		<g>
			<g>
				<g>
					<path style="fill:#2D314F;" d="M1736.73,1450.547c0,0,5.944,9.026,12.17,13.354c6.226,4.326,30.25,9.923,33.758,14.084
						c2.532,3.004,6.055,14.378-32.495,9.186c-27.389-3.688-40.9-2.756-43.362-7.529c-2.463-4.773,7.811-32.425,7.811-32.425
						S1720.469,1450.402,1736.73,1450.547z"/>
				</g>
			</g>
		</g>
		<g>
			<g>
				<path style="fill:#4BA2F4;" d="M1879.646,1159.891c3.38-0.482-8.391-101.22-7.491-107.537
					c0.603-4.215,0.508-36.951,0.261-57.361l3.683-20.653c2.051-1.492,4.799-3.216,8.088-5.111
					c5.115-2.952,11.533-6.327,18.662-9.89c-0.828-4.878-1.406-8.72-1.627-10.965c-1.78-18.142-13.966-27.756-20.874-31.803
					c-2.819-1.65-4.758-2.374-4.758-2.374c-2.624-1.114-5.203-2.192-7.704-3.222c-16.639-6.847-37.77-13.274-37.77-13.274h-33.952
					c0,0-25.847,5.164-41.251,11.469c-1.975,0.809-3.826,1.841-5.563,3.053l4.612,96.795c0.003,0.021,0.006,0.039,0.01,0.062
					c0.003,0.033,0.01,0.075,0.016,0.127c2.078,13.618,4.268,29.682,4.995,40.945c0.299,4.6-4.96,29.292-7.704,51.959l-9.603,54.238
					C1741.675,1156.348,1747.225,1178.822,1879.646,1159.891z"/>
			</g>
		</g>
	</g>
	<g>
		<g>
			<rect x="2376.084" y="766.054" style="fill:#FFCE55;" width="1.436" height="150.631"/>
		</g>
		<g>
			<rect x="2478.169" y="766.054" style="fill:#FFCE55;" width="1.436" height="150.631"/>
		</g>
		<g>
			<rect x="2580.253" y="766.054" style="fill:#FFCE55;" width="1.436" height="150.631"/>
		</g>
		<g>
			<rect x="2682.337" y="766.054" style="fill:#FFCE55;" width="1.436" height="150.631"/>
		</g>
		<g>
			<rect x="2784.422" y="766.054" style="fill:#FFCE55;" width="1.436" height="150.631"/>
		</g>
		<rect x="2376.803" y="925.609" style="fill:#FFCE55;" width="16.241" height="5.235"/>
		<rect x="2376.803" y="747.493" style="fill:#FFCE55;" width="24.451" height="3.927"/>
		<rect x="2376.803" y="754.751" style="fill:#FFCE55;" width="34.684" height="3.927"/>
		<rect x="2477.786" y="747.493" style="fill:#FFCE55;" width="28.707" height="3.927"/>
		<rect x="2477.786" y="754.751" style="fill:#FFCE55;" width="18.355" height="3.927"/>
		<rect x="2581.688" y="747.493" style="fill:#FFCE55;" width="17.789" height="3.927"/>
		<rect x="2581.688" y="754.751" style="fill:#FFCE55;" width="20.733" height="3.927"/>
		<rect x="2683.772" y="747.493" style="fill:#FFCE55;" width="25.912" height="3.927"/>
		<rect x="2683.772" y="754.751" style="fill:#FFCE55;" width="20.733" height="3.927"/>
		<rect x="2785.139" y="747.493" style="fill:#FFCE55;" width="15.477" height="3.927"/>
		<rect x="2785.139" y="754.751" style="fill:#FFCE55;" width="12.385" height="3.927"/>
		<rect x="2478.887" y="925.609" style="fill:#FFCE55;" width="16.241" height="5.235"/>
		<rect x="2581.688" y="925.609" style="fill:#FFCE55;" width="16.241" height="5.235"/>
		<rect x="2683.772" y="925.609" style="fill:#FFCE55;" width="16.241" height="5.235"/>
		<rect x="2785.857" y="925.609" style="fill:#FFCE55;" width="16.241" height="5.235"/>
		<g>
			<path style="fill:#FFCE55;" d="M2749.762,871.93c-31.84,0.002-59.519-13.765-88.374-28.114
				c-35.624-17.714-72.459-36.031-121.538-31.016c-31.339,3.203-51.01,15.966-68.365,27.226
				c-15.715,10.196-30.572,19.162-50.693,19.928c-32.519,1.237-43.801-12.632-43.988-13.478v-8.901l0,0l0,0
				c0.04,0.154,7.14,15.721,43.953,15.537c18.13-0.092,31.511-8.773,47.004-18.825c18.005-11.682,38.412-24.922,71.395-28.293
				c51.047-5.217,88.785,13.549,125.28,31.696c38.188,18.99,74.628,36.798,120.704,21.348v7.317
				C2772.005,870.759,2761.5,871.929,2749.762,871.93z"/>
		</g>
		<g>
			<path style="fill:#FFCE55;" d="M2558.639,870.225c-23.502,0.002-42.143-15.806-60.393-31.278
				c-13.837-11.732-28.193-23.727-44.765-29.643c-50.574-18.056-76.448,14.915-76.679,15.206v-10.03
				c0.272-0.343,4.889-6.336,18.24-12.058c12.156-5.21,32.554-9.365,60.687,0.42c17.824,6.199,32.626,18.75,46.942,30.887
				c29.039,24.62,54.118,45.883,97.672,12.578c32.988-25.226,64.085-49.264,94.682-58.046c29.926-8.59,61.125-2.302,90.329,26.902
				l-0.216,9.109c-62.035-62.309-114.856-22.833-180.639,27.469C2587.076,865.065,2572.063,870.224,2558.639,870.225z"/>
		</g>
	</g>
	<g>
		<g>
			<path style="fill:#EEA987;" d="M146.163,1788.276c0,0-0.269-4.749,9.334-10.261l-12.433-13.172c0,0-7.468,3.947-14.857,10.752
				C120.817,1782.398,146.163,1788.276,146.163,1788.276z"/>
		</g>
		<g>
			<path style="fill:#EEA987;" d="M444.606,1794.078c0,0-0.946-11.683,2.688-17.355l-15.554-3.182c0,0-8.916,12.702-8.447,20.312
				C423.763,1801.463,444.606,1794.078,444.606,1794.078z"/>
		</g>
		<g>
			<g>
				<g>
					<path style="fill:#EEA987;" d="M174.177,1834.551c-0.162,4.396,0.079,6.826-13.373,6.546
						c-13.452-0.279-25.865-16.724-34.53-28.3c-8.672-11.572-20.262-17.336-12.607-24.723c0.941-0.908,1.933-1.828,2.954-2.743
						c7.247-6.536,15.799-12.906,16.945-14.226c1.299-1.497,12.827,15.215,12.827,15.215s-1.288,8.148,0.715,12.996
						c1.998,4.839,4.85,22.293,11.123,25.383c0.005,0.004,0.01,0.004,0.01,0.004
						C164.515,1827.777,174.209,1833.584,174.177,1834.551z"/>
				</g>
			</g>
		</g>
		<g>
			<g>
				<g>
					<path style="fill:#EEA987;" d="M483.71,1832.29c-8.938-0.468-34.25-2.623-48.382-1.61
						c-14.132,1.019-19.527-1.318-18.199-11.393c0.069-0.548,0.153-1.1,0.248-1.664c1.597-9.841,5.962-22.131,6.372-26.256
						c0.432-4.359,18.179-1.338,18.179-1.338s8.882,14.122,13.927,17.113c5.039,2.987,20.399,9.245,26.275,12.096
						c0.43,0.211,0.897,0.405,1.39,0.591l0.005,0.001c6.23,2.345,16.878,3.001,18.304,6.426
						C503.363,1829.957,492.653,1832.752,483.71,1832.29z"/>
				</g>
			</g>
		</g>
		<g>
			<path style="fill:#004E8C;" d="M483.71,1832.29c-8.938-0.468-34.25-2.623-48.382-1.61c-14.132,1.019-19.527-1.318-18.199-11.393
				c0.069-0.548,0.153-1.1,0.248-1.664c3.471-2.238,27.849-0.006,42.225,2.353c14.376,2.358,23.917-0.146,23.917-0.146l0.005,0.001
				c6.23,2.345,16.878,3.001,18.304,6.426C503.363,1829.957,492.653,1832.752,483.71,1832.29z"/>
		</g>
		<g>
			<path style="fill:#004E8C;" d="M174.602,1834.408c-0.161,4.396-0.347,6.969-13.799,6.688c-13.452-0.279-25.865-16.724-34.53-28.3
				c-8.672-11.572-20.262-17.336-12.607-24.723c0.941-0.908,1.933-1.828,2.954-2.743c0.403,0.347,17.308,15.528,22.515,25.898
				c8.654,17.235,18.664,13.384,19.096,13.47c0.005,0.004,0.01,0.004,0.01,0.004
				C164.515,1827.777,174.636,1833.441,174.602,1834.408z"/>
		</g>
		<g>
			<path style="fill:#CCCCCC;" d="M506.999,1659.969c-14.731,22.349-59.702,129.877-59.702,129.877l-35.395-3.657
				c0,0,25.084-75.396,37.377-103.215c9.096-20.583,21.597-30.718,9.772-36.519c-9.988-4.904-70.199-29.031-95.686-42.801
				c-3.258-1.762-5.948-3.351-7.891-4.707c-0.853-0.598-1.56-1.143-2.111-1.645c-11.695-10.617,14.679-85.533,55.635-61.598
				c0,0,89.13,71.201,95.862,83.273C511.595,1631.056,521.735,1637.614,506.999,1659.969z"/>
		</g>
		<g>
			<g>
				<path style="fill:#CCCCCC;" d="M407.119,1533.396c0,0-60.564,84.913-115.497,130.776
					c-15.549,12.979-28.206,23.748-50.403,40.372c-11.799,8.836-32.681,27.396-49.653,42.837l-0.705,0.646
					c-12.104,11.027-22.102,20.354-25.183,23.238c-0.109,0.096-0.206,0.186-0.291,0.27l-0.343,0.32l-11.077,11.212l-15.843-15.452
					c0,0,18.921-22.854,29.736-40.521c15.178-24.795,37.323-52.297,48.778-60.229c19.625-13.589,38.729-21.676,45.955-34.542
					c7.232-12.866,32.097-64.694,32.097-64.694s5.75-53.959,38.859-65.867C364.751,1490.54,407.119,1533.396,407.119,1533.396z"/>
			</g>
		</g>
		<g>
			<g>
				<path style="fill:#EEA987;" d="M441.951,1307.561c-1.561,2.246-2.795,5.179-3.765,8.314c-0.92,2.959-1.605,6.098-2.113,9.009
					c-1.103,6.318-1.37,11.565-1.37,11.565s-34.878-10.268-28.468-18.11c6.407-7.847,4.793-33.136,4.793-33.136
					S447.096,1300.164,441.951,1307.561z"/>
			</g>
		</g>
		<g>
			<g>
				<path style="fill:#EEA886;" d="M466.805,1240.744c0,0,8.501,8.531,2.813,30.933c0,0,0.703,18.221,3.243,21.571
					c2.54,3.351-7.74,3.781-8.977,5.975c-1.237,2.193-4.031,12.673-11.601,18.563c-7.57,5.892-41.374-15.949-42.303-26.979
					c-0.928-11.029-21.946-59.534,16.808-58.893C465.541,1232.557,466.805,1240.744,466.805,1240.744z"/>
			</g>
		</g>
		<g>
			<g>
				<path style="fill:#FFBF55;" d="M455.987,1438.955c-1.445,2.504-3.046,5.113-4.8,7.85c-4.733,7.402-10.564,15.72-17.506,25.387
					c-1.531,2.129-3.415,4.499-5.053,7.395c-8.971,15.861-16.299,42.879-18.767,52.625c-0.584,2.305-0.863,3.494-0.863,3.494
					c-46.829,1.017-96.005-29.44-96.005-29.44c30.8-32.563,42.853-57.702,42.853-57.702c3.231-8.847,5.183-18.76,5.794-31.865
					c1.766-37.867,12.281-58.755,22.492-75.285c10.205-16.529,22.103-23.076,22.103-23.076l28.632,17.375
					c3.338,10.752,15.022,22.736,26.5,49.019C469.834,1404.127,468.162,1417.912,455.987,1438.955z"/>
			</g>
		</g>
		<g>
			<g>
				<path style="fill:#464240;" d="M471.17,1263.588c0,0,7.735-46.809-38.559-41.688c-46.295,5.123-26.455,58.319-21.509,75.55
					c0,0,1.132-26.125,23.19-25.39C456.351,1272.797,461.264,1268.033,471.17,1263.588z"/>
			</g>
		</g>
		<g>
			<g>
				<path style="fill:#EEA987;" d="M431.194,1265.188c-2.405-4.983-12.022-3.111-11.47,4.255s7.588,15.185,10.348,11.839
					C432.832,1277.936,434.727,1272.51,431.194,1265.188z"/>
			</g>
		</g>
		<g>
			<path style="fill:#464240;" d="M414.916,1235.922c0,0-12.387-13.727-22.889,0.053c-10.503,13.779,8.743,35.44,17.997,24.072
				C419.278,1248.678,414.916,1235.922,414.916,1235.922z"/>
		</g>
		<g>
			<path style="fill:#A77860;" d="M438.186,1315.875c-0.92,2.959-1.605,6.098-2.113,9.009
				c-11.385-6.214-19.007-23.239-19.007-23.239c7.995,7.963,21.117,14.228,21.117,14.228S438.184,1315.872,438.186,1315.875z"/>
		</g>
		<g>
			<path style="fill:#464240;" d="M408.422,1231.214c0,0-5.647-9.229-18.681-9.351c-13.033-0.121-29.038,19.599-24.983,48.286
				c4.054,28.688-5.208,62.203-32.437,89.795c0,0,47.521-25.619,51.912-63.39c4.393-37.771,17.746-37.865,17.746-37.865
				L408.422,1231.214z"/>
		</g>
		<g>
			<path style="fill:#EEA886;" d="M521.606,1508.996c0,0,12.482,0.236,15.42,0.691s9.219,2.162,10.069,1.579
				c0.852-0.583,3.591-12.294,5.729-14.831c2.14-2.537,9.73-28.461,8.358-28.272c-1.371,0.188-6.087,6.882-15.805,18.255
				c-9.718,11.372-20.795,7.182-24.71,9.863C516.752,1498.962,521.606,1508.996,521.606,1508.996z"/>
		</g>
		<g>
			<path style="fill:#919191;" d="M355.476,1598.947c0,0,25.908-30.409,27.886-34.041c-1.055,2.328-14.64,32.256-19.995,38.748
				C360.108,1601.893,357.418,1600.304,355.476,1598.947z"/>
		</g>
		<g>
			<path style="fill:#BD8D3F;" d="M455.987,1438.955c-1.445,2.504-3.046,5.113-4.8,7.85c0,0-14.722-44.814-16.153-55.852
				C435.034,1390.953,448.951,1422.312,455.987,1438.955z"/>
		</g>
		<g>
			<path style="fill:#FFBF55;" d="M526.941,1494.98c0,0-46.421-10.593-69.134-32.127c-5.944-5.636-29.326-96.724-29.326-96.724
				s-6.425-23.017-26.77-16.376c-20.345,6.643-12.206,29.83-12.206,29.83s28.126,72.066,43.013,100.102
				c12.388,23.329,94.771,31.072,94.771,31.072L526.941,1494.98z"/>
		</g>
		<g>
			<polygon style="fill:#E0E0E0;" points="402.41,1320.917 408.964,1312.677 437.076,1329.771 437.248,1344.027 			"/>
		</g>
	</g>
	<g>
		<g>
			<path style="fill:#33A4FF;" d="M581.451,1446.365c-18.952,27.291-31.699,57.058-38.546,87.609l-0.027,0.04
				c-4.595,20.584-6.543,41.526-5.86,62.345c2.337,76.26,39.587,150.445,107.055,197.3
				c113.231,78.635,268.726,50.597,347.333-62.595c78.635-113.23,50.597-268.725-62.634-347.359
				c-38.582-26.794-82.088-41.217-125.772-44.054c-72.122-4.726-144.816,22.028-196.758,76.382
				C597.307,1425.323,589.016,1435.473,581.451,1446.365z"/>
		</g>
		<g>
			<path style="fill:#007FE6;" d="M569.273,1380.607l217.011,207.979l19.983-299.98
				C719.396,1282.913,631.836,1315.139,569.273,1380.607z"/>
		</g>
		<g>
			<path style="fill:#0064B5;" d="M574.585,1441.568c-19.576,28.188-32.742,58.934-39.814,90.491l251.512,56.526L600.19,1410.238
				C590.961,1419.833,582.398,1430.318,574.585,1441.568z"/>
		</g>
		<g>
			<path style="fill:#004E8C;" d="M519.363,1528.596l-0.03,0.045c-5.037,22.563-7.173,45.52-6.424,68.34l273.374-8.395
				L519.363,1528.596z"/>
		</g>
	</g>
	<g>
		<g>
			<path style="fill:#353A3D;" d="M1303.196,1764.28c0,0,7.599,11.369,18.258,13.825s21.158,6.362,21.239,13.089
				c0.08,6.727-30.818,10.739-43.016,3.957c-18.205-10.12-20.056-7.069-22.074-12.129c-2.019-5.059,2.425-18.587,2.293-20.195
				C1279.734,1760.838,1303.196,1764.28,1303.196,1764.28z"/>
		</g>
		<g>
			<path style="fill:#81807E;" d="M1302.016,1758.672c0,0,1.387,5.492,1.181,5.608s-24.02,2.953-23.3-1.453
				c0.584-3.574,1.418-7.458,1.418-7.458L1302.016,1758.672z"/>
		</g>
		<g>
			<path style="fill:#353A3D;" d="M1223.054,1763.526c0,0,5.42,10.875,14.681,14.579c9.899,3.959,17.839,8.51,17.658,15.064
				s-24.2,13.196-41.674,0.617c-11.041-7.947-14.539-7.986-16.311-12.99c-1.771-5.005,3.075-18.01,3.009-19.582
				C1200.336,1759.273,1223.054,1763.526,1223.054,1763.526z"/>
		</g>
		<g>
			<path style="fill:#81807E;" d="M1223.324,1757.879c0,0-0.065,5.542-0.271,5.647c-0.205,0.104-23.222,2.002-22.637-2.312
				c0.465-3.426,2.234-7.563,2.234-7.563L1223.324,1757.879z"/>
		</g>
		<g>
			<path style="fill:#2D3133;" d="M1307.713,1425.67c0,0,21.384,94.319,26.268,123.05c4.156,24.452,7.47,49.915,5.479,67.567
				c-2.466,21.855-33.403,135.121-32.11,141.528c1.293,6.408-32.373,1.026-32.373,1.026s23.529-126.345,18.829-149.859
				c-3.481-17.416-33.982-133.11-38.656-127.176c-4.675,5.934-10.471,109.188-13.933,126.328
				c-3.462,17.141-14.09,152.572-14.09,152.572s-23.761,3.506-30.107-1.865c0,0-2.89-115.643-0.684-147.777
				c0.841-12.246-14.35-146.838,5.128-201.021C1211.757,1381.407,1307.713,1425.67,1307.713,1425.67z"/>
		</g>
		<g>
			<path style="fill:#DECBC4;" d="M1400.787,1339.928c-15.239-2.141-63.188,19.1-67.544,17.496
				c-2.996-1.1-10.027-24.012-15.051-41.352c-2.971-10.258-5.237-18.566-5.553-19.252l-0.019-0.037
				c0.049,0.46,0.826,8.302-0.163,18.604c-0.063,0.667-0.366,0.845-0.444,1.53c-0.022,0.178-0.121,0.731-0.195,0.899
				c-1.116,2.54-1.53,7.322-2.557,11.301c-1.522,5.875-2.36,13.877-1.756,22.213v0.033c-0.004,0.063-0.004,0.122-0.012,0.189
				c-0.004,0.188-0.015,0.374-0.015,0.563c0,0.074-0.008,0.152-0.008,0.23c-0.426,14.851,0.601,30.86,1.026,39.381
				c0.671,13.198-3.671,19.141-3.797,19.311c-0.004,0.004-0.004,0.004-0.004,0.004l-4.594-0.645l-3.318-0.467l-0.041-0.008
				l-4.434-0.622l-17.389-2.444l-6.298-0.886l-1.488-0.211l-11.018-1.549l-31.061-4.371l-3.408-0.478l-1.404-0.196l-11.713-1.652
				l-5.294-0.741l-0.019-0.004c0,0-4.497-31.891-4.841-49.127c-0.312-15.832-8.787-47.979-10.169-53.121
				c-0.008-0.037-0.019-0.07-0.029-0.107c-0.011-0.048-0.022-0.096-0.037-0.141c-0.026-0.089-0.045-0.162-0.063-0.226
				c-0.007-0.037-0.019-0.074-0.029-0.111c0-0.011-0.004-0.022-0.008-0.029c-0.004-0.011-0.007-0.022-0.007-0.034
				c-0.012-0.036-0.012-0.055-0.012-0.055s-25.353,26.634-30.271,38.255c-1.501,3.526-6.087,13.117-11.925,24.793
				c-3.993-7.62-6.493-12.917-6.493-14.243c0-0.163,0.003-0.337,0.007-0.519c0.374-11.491,12.417-58.085,21.919-88.523
				c7.379-14.832,13.743-26.827,15.784-28.29c3.094-2.223,16.106-7.794,27.464-12.303c0.374-0.147,0.745-0.292,1.108-0.437
				c1.06-0.419,2.104-0.826,3.119-1.223c0.507-0.196,1.007-0.389,1.5-0.578c0.271-0.104,0.537-0.203,0.804-0.304
				c0.219-0.085,0.434-0.166,0.648-0.248h0.003c5.68-2.159,9.995-3.667,10.884-3.719c0.148-0.012,0.386-0.008,0.708,0.004
				c0.374,0.007,0.859,0.029,1.438,0.066c7.02,0.411,27.971,2.375,34.713,3.016c1.227,0.114,1.986,0.188,2.101,0.199
				c0.011,0,0.015,0,0.015,0s3.212,1.464,8.046,3.676l0.004,0.003l0.448,0.204c2.923,1.341,6.305,3.126,9.879,5.082
				c7.01,3.842,14.751,8.331,21.171,11.387c6.298,2.994,14.918,7.168,15.651,7.754l31.898,91.984l55.337-10.113L1400.787,1339.928z"
				/>
		</g>
		<g>
			<path style="fill:#495055;" d="M1304.7,1411.036c0,0,2.337,2.796,3.013,14.634c0,0-96.092-11.209-106.25-15.627
				c0,0-0.396-13.047,1.758-13.273C1205.588,1396.521,1304.7,1411.036,1304.7,1411.036z"/>
		</g>
		<g>
			<path style="fill:#EEA886;" d="M1222.756,1203.218c0.298,15.081,29.498,23.331,29.498,23.331s12.214-15.313,9.296-16.779
				c-1.146-0.576-1.611-2.861-1.754-5.424c-0.132-2.439,0.023-5.131,0.166-6.84c0.087-1.066,0.169-1.753,0.169-1.753
				s-4.172-4.401-9.479-9.646c-9.275-9.171-22.025-20.919-22.046-16.245c-0.001,0.247,0.033,0.543,0.108,0.886
				C1230.955,1181.266,1222.756,1203.218,1222.756,1203.218z"/>
		</g>
		<g>
			<path style="fill:#353A3D;" d="M1225.177,1399.082c0,0-2.097,13.227-2.279,16.674l-4.444-0.887c0,0,1.224-13.994,1.943-16.339
				L1225.177,1399.082z"/>
		</g>
		<g>
			<path style="fill:#353A3D;" d="M1296.684,1409.493c0,0,1.685,12.022,1.725,16.563l-4.703-0.611c0,0-0.964-15.013-1.501-16.58
				L1296.684,1409.493z"/>
		</g>
		<g>
			<path style="fill:#A77860;" d="M1234.001,1181.121c0,0,0,0,0.002,0.003c0.058,0.088,1.296,1.94,3.41,4.6
				c4.482,5.639,12.909,14.901,22.383,18.622c-0.132-2.439,0.023-5.131,0.166-6.84c0.97-0.024,1.939-0.137,2.9-0.35
				c-2.598-4.537-6.349-9.296-6.349-9.296l-5.861-1.753L1234.001,1181.121z"/>
		</g>
		<g>
			<path style="fill:#EEA886;" d="M1228.396,1170.066c2.526,5.494,4.925,9.478,5.605,11.055c0,0,0,0,0.002,0.003
				c0.442,1.028,1.648,2.703,3.41,4.6c4.812,5.185,13.757,12.022,22.549,11.782c0.97-0.024,1.939-0.137,2.9-0.35
				c3.55-0.775,7.743-2.426,10.05-6.941c18.217-35.666,5.027-64.831,5.027-64.831s-49.81-14.086-57.603,0.909
				C1214.868,1136.811,1222.461,1157.154,1228.396,1170.066z"/>
		</g>
		<g>
			<path style="fill:#D6D6D6;" d="M1277.939,1125.384c0,0,4.626-0.256,5.77-9.026c1.131-8.665-1.155-11.066-1.155-11.066
				s-20.563-8.607-27.947-9.728c-7.384-1.119-25.542-2.194-29.798,2.673c0,0-10.341-2.403-13.158,14.765
				c-4.47,27.234,15.23,53.679,15.23,53.679s-0.169-17.791,3.755-20.149c3.924-2.357,7.311,3.249,7.311,3.249l8.026,1.438
				c0,0-12.19-26.322,2.433-27.298C1263.029,1122.944,1269.568,1126.91,1277.939,1125.384z"/>
		</g>
		<g>
			<path style="fill:#EEA886;" d="M1237.726,1142.687c-0.763-7.838-14.938-10.831-13.989-2.615
				c0.95,8.216,7.931,16.109,11.155,15.831C1238.116,1155.625,1238.308,1148.661,1237.726,1142.687z"/>
		</g>
		<g>
			<path style="fill:#3C4145;" d="M1145.828,1356.864c6.176,11.78,15.918,29.112,25.538,45.92c-1.267,2.363-2.504,4.708-3.689,7.023
				c-2.894,5.66-5.46,11.139-7.283,16.247c-2.192,6.142-5.241,21.874,0.593,24.797l30.739,16.967c0,0,0.215-0.601,0.622-1.712
				c1.019-2.76,3.227-8.665,6.283-16.314c0.1-0.248,0.407-0.978,0.862-2.052c0.611-1.441,1.493-3.501,2.501-5.854
				c0.451-1.052,0.926-2.163,1.418-3.304c0.557-1.304,1.135-2.648,1.708-3.986c0.837-1.948,1.671-3.886,2.441-5.679
				c2.097-4.882,3.734-8.683,3.734-8.683c0.104-0.226,0.207-0.448,0.311-0.675c1.001-2.163,2.026-4.334,3.071-6.497
				c1.615-3.353,3.278-6.69,4.979-9.954c0.171-0.333,0.341-0.662,0.516-0.992c0.303-0.574,0.607-1.148,0.91-1.715
				c0.189-0.349,0.378-0.697,0.567-1.041c0.041-0.078,0.085-0.156,0.126-0.233c0.078-0.138,0.151-0.274,0.229-0.411
				c8.887-16.211,18.896-29.765,22.089-49.643c0.308-1.919,0.601-3.826,0.878-5.72c0.464-3.156,0.89-6.271,1.278-9.323
				c0.145-1.156,0.289-2.297,0.426-3.431c1.601-13.262,2.556-25.079,3.327-33.31c2.403-25.642-13.303-53.406-25.36-70.558
				c-6.449-9.172-11.851-15.31-12.892-16.474c-0.025-0.021-0.044-0.044-0.063-0.063c-0.215,0.082-0.43,0.163-0.648,0.248
				c-0.267,0.101-0.533,0.2-0.804,0.304c-0.493,0.189-0.993,0.382-1.5,0.578c-1.016,0.396-2.06,0.804-3.119,1.223
				c-0.363,0.145-0.734,0.289-1.108,0.437c-11.676,4.579-39.196,12.72-42.29,14.938c-1.785,1.278-2.85,11.603-7.462,26.383
				c-9.501,30.438-15.141,76.334-15.415,87.795c-0.004,0.182-0.007,0.355-0.007,0.519
				C1139.335,1343.947,1141.835,1349.244,1145.828,1356.864z M1192.537,1351.138c0,5.72-1.86,12.269-4.72,19.247
				c-0.074,0.175-0.145,0.353-0.219,0.526c-1.971-4.204-3.826-8.23-5.489-11.961c-0.004-0.008-0.008-0.011-0.008-0.019
				c-4.575-10.239-7.716-18.226-7.891-21.385c-1.13-20.305,13.825-43.676,13.825-43.676c0,0.012,0.003,0.023,0.007,0.034
				c0.004,0.007,0.008,0.019,0.008,0.029c0.011,0.037,0.022,0.074,0.029,0.111c0.022,0.074,0.045,0.148,0.063,0.226
				c0.015,0.045,0.026,0.093,0.037,0.141c0.011,0.037,0.021,0.07,0.029,0.107
				C1191.273,1306.589,1192.537,1351.138,1192.537,1351.138z"/>
		</g>
		<g>
			<path style="fill:#3C4145;" d="M1421.213,1308.756l-69.604,15.158l-33.179-86.768c-0.733-0.581-10.246-5.701-16.544-8.697
				c-6.557-3.123-14.854-6.976-22.215-10.373c-3.516-1.626-6.827-3.145-9.624-4.43l-0.229,0.182c0,0,4.108,13.68,9.424,47.826
				c0,0.004,0,0.008,0.003,0.012c0.183,1.148,0.36,2.315,0.541,3.508c0.02,0.137,0.041,0.278,0.063,0.415
				c0.118,0.789,0.241,1.589,0.359,2.4c0.015,0.097,0.029,0.192,0.044,0.285c0.082,0.545,0.163,1.093,0.241,1.648
				c0.2,1.349,0.4,2.723,0.601,4.123c2.37,16.621,5.697,44.908,8.894,73.465v0.011c2.526,22.508,8.283,45.605,10.113,62.842
				c0,0.011,0.003,0.021,0.003,0.033c0.363,3.378,1.227,7.879,2.394,12.957c0.13,0.575,0.267,1.156,0.403,1.745
				c5.149,21.756,15.147,52.551,15.147,52.551l2.912-2.689l8.624-7.961c1.985-1.829,2.737-4.638,1.937-7.212
				c-4.782-15.43-21.036-70.031-24.015-108.424c-0.004-0.011-0.004-0.021-0.004-0.033c-0.934-12.062,2.593-23.423,4.638-34.195
				c0.037,0.093,0.07,0.186,0.104,0.282c1.712,4.76,3.608,9.935,5.52,14.973v0.004c5.131,13.528,10.38,26.063,12.565,26.864
				c4.863,1.789,96.514-23.27,97.146-26.866L1421.213,1308.756z"/>
		</g>
		<g>
			<path style="fill:#51565C;" d="M1219.796,1247.623l14.205,8.012l-6.069,6.189l16.16,87.252
				c3.295-20.451,4.795-39.873,5.91-51.784c3.717-39.641-35.851-84.358-38.312-87.097c-1.9,0.721-3.954,1.518-6.075,2.355
				L1219.796,1247.623z"/>
		</g>
		<g>
			<path style="fill:#51565C;" d="M1269.599,1213.443c0,0,5.307,17.334,11.493,60.602c2.371,16.621,5.698,44.911,8.897,73.465
				l3.307-81.715l-6.768-7.331l6.016-7.52l-12.873-32.867c-3.516-1.626-6.825-3.146-9.625-4.432L1269.599,1213.443z"/>
		</g>
		<g>
			<path style="fill:#F5E2D9;" d="M1210.978,1210.371l11.778-7.153c0,0,0.329,6.459,29.498,23.331l-8.284,23.33L1210.978,1210.371z"
				/>
		</g>
		<g>
			<path style="fill:#F5E2D9;" d="M1260.012,1206.473c0,0-0.458,6.971-7.758,20.076l16.166,21.074l1.179-34.18L1260.012,1206.473z"
				/>
		</g>
		<g>
			<path style="fill:#0064B5;" d="M1252.209,1226.549c0,0-3.133,12.531-2.005,16.041c0,0,6.89,2.506,11.841-0.627
				C1262.045,1241.963,1258.538,1233.19,1252.209,1226.549z"/>
		</g>
		<g>
			<g>
				<path style="fill:#AD9F99;" d="M1268.405,1407.289c1.753-8.842,0.085-35.338,0.013-36.461l-1.501,0.096
					c0.018,0.273,1.729,27.422,0.013,36.073L1268.405,1407.289z"/>
			</g>
		</g>
		<g>
			<path style="fill:#69737A;" d="M1256.139,1403.212c0,0,14.139,1.688,18.814,2.854l-0.613,15.848l-18.515-1.976L1256.139,1403.212
				z"/>
		</g>
		<g>
			<path style="fill:#0064B5;" d="M1259.232,1240.835c0,0,15.77,39.823,13.197,84.397c-2.667,46.217-7.041,62.974-7.041,62.974
				l-9.724,12.194l-4.288-14.987c0,0,13.048-58.922,4.625-116.256c-1.526-10.39-3.793-30.077-3.793-30.077L1259.232,1240.835z"/>
		</g>
		<g>
			<path style="fill:#EEA886;" d="M1211.847,1428.904c0,0,3.384,6.768,6.768,7.895c3.384,1.129,8.318,6.627,8.318,6.627
				l-23.827,12.548c0,0-6.344-12.407-6.626-20.302C1196.197,1427.776,1211.847,1428.904,1211.847,1428.904z"/>
		</g>
		<g>
			<path style="fill:#DECBC4;" d="M1214.108,1429.539l1.579,3.172c0,0-15.133,11.067-19.212,11.772l-1.399-4.229L1214.108,1429.539z
				"/>
		</g>
		<g>
			<path style="fill:#3C4145;" d="M1215.688,1429.678c0,0-11.341,9.377-20.895,13.701l-32.141-57.81l16.654-32.195
				C1179.307,1353.374,1214.936,1424.038,1215.688,1429.678z"/>
		</g>
		<g>
			<path style="fill:#2D3133;" d="M1312.243,1317.417c1.712,4.76,3.608,9.935,5.52,14.973c0.444-5.838,0.56-11.279,0.43-16.317
				c-0.767-29.987-10.198-45.712-10.198-45.712c2.164,5.227,3.201,16.439,3.697,26.575c0.526,10.694,0.448,20.192,0.448,20.192
				s0,0.003,0,0.007L1312.243,1317.417z"/>
		</g>
		<g>
			<path style="fill:#2D3133;" d="M1167.677,1409.808l25.73,31.075l-22.041-38.099
				C1170.1,1405.147,1168.862,1407.492,1167.677,1409.808z"/>
		</g>
		<g>
			<path style="fill:#B8B8B8;" d="M1354.532,1370.846h59.405c4.071,0,7.614-2.787,8.572-6.744l25.804-106.538
				c1.344-5.551-2.861-10.896-8.573-10.896h-59.404c-4.072,0-7.615,2.786-8.573,6.744l-25.804,106.538
				C1344.615,1365.5,1348.82,1370.846,1354.532,1370.846z"/>
		</g>
		<g>
			<g>
				<path style="fill:#EEA886;" d="M1427.192,1341.229c-2.906-2.691-8.514-4.253-13.315-7.461c-4.802-3.209-0.791-6.516-0.791-6.516
					c-4.935-1.694-4.403-3.945-3.771-5.48c0.854-2.073,6.241-1.485,6.241-1.485s-4.831-1.068-6.817-1.947
					c-1.988-0.88-1.313-4.345,1.743-5.439c3.058-1.096,15.516,1.976,15.516,1.976s-2.031-0.994-8.176-4.078
					c-6.144-3.084-7.493-5.889-3.87-7.235c2.519-0.937,7.468,1.026,16.967,7.409c7.151,4.805,6.57,5.432,6.57,5.432
					S1430.664,1344.442,1427.192,1341.229z"/>
			</g>
		</g>
	</g>
	<g>
		<g>
			<path style="fill:#FFDC7D;" d="M2361.903,443.929c-10.173,0.141-19.9-2.773-27.711-8.358
				c-8.86-6.334-14.216-15.331-15.093-25.347c-3.166-19.59-11.137-39.412-17.456-52.919c-25.864-17.083-41.528-45.65-41.959-76.64
				c-0.715-51.476,40.582-93.936,92.058-94.651c51.477-0.715,93.937,40.582,94.651,92.058c0.39,28.024-11.624,54.38-33.005,72.509
				c-5.242,19.489-7.857,37.132-7.771,52.459c1.606,20.493-16.381,38.742-40.176,40.718
				C2364.258,443.855,2363.077,443.912,2361.903,443.929z M2351.849,193.65c-47.265,0.656-85.183,39.643-84.526,86.908
				c0.399,28.794,15.123,55.309,39.384,70.929l0.919,0.591l0.467,0.988c6.613,13.996,15.203,35.088,18.571,56.085l0.036,0.289
				c0.647,7.804,4.887,14.878,11.936,19.917c7.241,5.178,16.541,7.593,26.174,6.787c19.656-1.632,34.542-16.267,33.184-32.624
				l-0.012-0.146l-0.001-0.145c-0.108-16.358,2.702-35.136,8.354-55.815l0.318-1.167l0.933-0.77
				c20.173-16.665,31.534-41.196,31.171-67.301C2438.1,230.912,2399.113,192.994,2351.849,193.65z"/>
		</g>
		<g>
			<polygon style="fill:#FFDC7D;" points="2341.818,413.766 2320.537,313.521 2343.235,329.102 2355.031,313.386 2367.581,326.008 
				2385.823,307.506 2382.932,410.083 2375.297,409.868 2377.641,326.685 2367.604,336.865 2355.84,325.034 2344.949,339.542 
				2331.979,330.64 2349.289,412.179 			"/>
		</g>
		<g>
			
				<rect x="2332.6" y="434.434" transform="matrix(0.9966 -0.0828 0.0828 0.9966 -28.9426 197.3236)" style="fill:#FFDC7D;" width="66.222" height="26.686"/>
		</g>
		<g>
			
				<rect x="2320.369" y="407.239" transform="matrix(0.9966 -0.0828 0.0828 0.9966 -27.3693 197.1135)" style="fill:#FFDC7D;" width="87.519" height="42.958"/>
		</g>
	</g>
</g>
</svg>
